<svg xmlns="http://www.w3.org/2000/svg" id="Group_161" width="254.792" height="195.68" viewBox="0 0 254.792 195.68">
    <defs>
        <clipPath id="clip-path">
            <path id="Rectangle_77" d="M0 0H254.792V195.68H0z" class="cls-1"/>
        </clipPath>
        <clipPath id="clip-path-3">
            <path id="Rectangle_65" d="M0 0H102.064V78.984H0z" class="cls-1"/>
        </clipPath>
        <clipPath id="clip-path-4">
            <path id="Rectangle_67" d="M0 0H53.474V37.155H0z" class="cls-1"/>
        </clipPath>
        <clipPath id="clip-path-5">
            <path id="Rectangle_68" d="M0 0H21.804V30.352H0z" class="cls-1"/>
        </clipPath>
        <clipPath id="clip-path-6">
            <path id="Rectangle_69" d="M0 0H254.792V18.621H0z" class="cls-1"/>
        </clipPath>
        <clipPath id="clip-path-7">
            <path id="Rectangle_70" d="M0 0H7.188V5.65H0z" class="cls-1"/>
        </clipPath>
        <clipPath id="clip-path-8">
            <path id="Rectangle_71" d="M0 0H31.041V54.314H0z" class="cls-1"/>
        </clipPath>
        <clipPath id="clip-path-9">
            <path id="Rectangle_72" d="M0 0H16.488V27.013H0z" class="cls-1"/>
        </clipPath>
        <clipPath id="clip-path-10">
            <path id="Rectangle_73" d="M0 0H26.905V28.276H0z" class="cls-1"/>
        </clipPath>
        <clipPath id="clip-path-11">
            <path id="Rectangle_74" d="M0 0H19.04V6.218H0z" class="cls-1"/>
        </clipPath>
        <style>
            .cls-1{fill:none}.cls-2{clip-path:url(#clip-path)}.cls-3{fill:#e6e6e6}.cls-4{opacity:.08}.cls-12,.cls-4{isolation:isolate}.cls-6{fill:#24285b}.cls-9{fill:#a5a5a5}.cls-10{fill:#f4a28c}.cls-11{fill:#fc0a0f}.cls-12{opacity:.2}.cls-14{fill:#fff}
        </style>
    </defs>
    <g id="Group_160" class="cls-2">
        <g id="Group_159">
            <g id="Group_158" class="cls-2">
                <path id="Path_139" d="M162.917 135.632h-54.6A67.816 67.816 0 0 1 108.316 0h54.6a67.816 67.816 0 0 1 0 135.632" class="cls-3" transform="translate(-7.277)"/>
                <g id="Group_133" class="cls-4" transform="translate(32.165 56.632)">
                    <g id="Group_132">
                        <g id="Group_131" clip-path="url(#clip-path-3)">
                            <path id="Path_140" d="M135.434 96.914l5.841 9.713-7.867 4.43-6.39-11.485-8.81 4.413 6.563 12.3-8.325 4.865-5.876-10.11-4.1 3.068a9.146 9.146 0 0 0-3.642 7.875c.394 6.669.41 18.671-3.708 25.775l-27.488.263L74.78 122.9 45.2 95.585l-3.66-12.051-2.33-11.107 5.29-2.822a4.825 4.825 0 0 1 5.209.427 7.1 7.1 0 0 1 2.782 8.006c-1.984 7.022-.885 14.762 3.716 15.832s23.469-4.643 27.637 5.882 6.357 11.4 16.447 3.076 26.939-16.587 26.939-16.587z" transform="translate(-39.21 -69.036)"/>
                        </g>
                    </g>
                </g>
                <path id="Path_141" d="M129.4 141.9a1.895 1.895 0 1 1-1.9 1.895 1.9 1.9 0 0 1 1.9-1.895" class="cls-6" transform="translate(-22.909 -25.496)"/>
                <path id="Path_142" d="M141.608 141.9a1.895 1.895 0 1 1-1.9 1.895 1.9 1.9 0 0 1 1.9-1.895" class="cls-6" transform="translate(-25.103 -25.496)"/>
                <path id="Path_143" d="M153.815 141.9a1.895 1.895 0 1 1-1.9 1.895 1.9 1.9 0 0 1 1.9-1.895" class="cls-6" transform="translate(-27.296 -25.496)"/>
                <path id="Path_144" d="M166.023 141.9a1.895 1.895 0 1 1-1.9 1.895 1.9 1.9 0 0 1 1.9-1.895" class="cls-6" transform="translate(-29.49 -25.496)"/>
                <path id="Path_145" d="M178.23 141.9a1.895 1.895 0 1 1-1.895 1.895 1.9 1.9 0 0 1 1.895-1.895" class="cls-6" transform="translate(-31.683 -25.496)"/>
                <g id="Group_136" transform="translate(100.655 33.904)" style="isolation:isolate" opacity="0.4">
                    <g id="Group_135">
                        <g id="Group_134" clip-path="url(#clip-path-4)">
                            <path id="Rectangle_66" d="M0 0H53.474V37.155H0z" class="cls-9"/>
                        </g>
                    </g>
                </g>
                <path id="Path_146" d="M74.51 140.568s3.5 16.218 12.748 15.381 12.3-27.268 12.3-27.268l-3.4-3.191z" class="cls-10" transform="translate(-13.388 -22.548)"/>
                <path id="Path_147" d="M63.51 99.18s19.917 2.961 21.8 24.774l-13.064 5.586z" class="cls-11" transform="translate(-11.411 -17.82)"/>
                <g id="Group_139" class="cls-12" transform="translate(52.099 81.368)">
                    <g id="Group_138">
                        <g id="Group_137" clip-path="url(#clip-path-5)">
                            <path id="Path_148" d="M72.246 129.542L63.51 99.19s19.917 2.961 21.8 24.774" class="cls-14" transform="translate(-63.51 -99.19)"/>
                        </g>
                    </g>
                </g>
                <g id="Group_142" transform="translate(0 177.058)" style="isolation:isolate" opacity="0.45">
                    <g id="Group_141">
                        <g id="Group_140" clip-path="url(#clip-path-6)">
                            <path id="Path_149" d="M127.4 215.84c70.359 0 127.4 4.169 127.4 9.311s-57.037 9.311-127.4 9.311S0 230.292 0 225.151s57.037-9.311 127.4-9.311" class="cls-3" transform="translate(0 -215.84)"/>
                        </g>
                    </g>
                </g>
                <path id="Path_150" d="M39.321 218.377s-1.641 2.026-.681 4.036-.591 3.634-2.108 2.2-1.952-7.194-1.952-7.194l2.838-1.518z" class="cls-11" transform="translate(-6.213 -38.792)"/>
                <path id="Path_151" d="M98.917 200.85s1.017 2.461 3.281 2.461 2.937 2.215.96 2.888-7.268-1.641-7.268-1.641v-3.224z" class="cls-11" transform="translate(-17.229 -36.088)"/>
                <path id="Path_152" d="M38.937 67.613s4.28 6.278 5.638 11.288a3.843 3.843 0 0 1-2.7 4.677 8.457 8.457 0 0 1-8.854-2.293l-5.228-4.7a6.831 6.831 0 0 1-.961-7.829c2.217-4.766 9.686-5.112 12.108-1.14" class="cls-10" transform="translate(-4.674 -11.658)"/>
                <path id="Path_153" d="M31.053 78.941l3.472 20.666 14 .641L40.381 84.1z" class="cls-10" transform="translate(-5.579 -14.184)"/>
                <path id="Path_154" d="M37.063 66.948a29.632 29.632 0 0 1-6.407 2.96 6.326 6.326 0 0 1 3.459 6.111 5.007 5.007 0 0 1-1.371 3.293 2.7 2.7 0 0 1-4.266-.73l-3.459-6.33a7.753 7.753 0 0 1 0-7.931 27.992 27.992 0 0 1 2.05-2.985c1.9-2.358 6.407-2.742 7.687-5.638a1.846 1.846 0 0 1 3.127-.372c1.832 2.371 3.664 6.7.961 10.083a7.342 7.342 0 0 1-1.781 1.538" class="cls-6" transform="translate(-4.299 -9.815)"/>
                <path id="Path_155" d="M36.214 79.551s-1.486-2.563-3.293-1.281.32 4.933 3.113 3.844z" class="cls-10" transform="translate(-5.795 -13.999)"/>
                <path id="Path_156" d="M44.782 73.162l3.28 1.512a1.283 1.283 0 0 1 .507 1.74 1.267 1.267 0 0 1-.226.3l-2.28 1.909z" class="cls-10" transform="translate(-8.046 -13.146)"/>
                <g id="Group_145" transform="translate(31.162 71.33)" style="isolation:isolate" opacity="0.31">
                    <g id="Group_144">
                        <g id="Group_143" clip-path="url(#clip-path-7)">
                            <path id="Path_157" fill="#ce8172" d="M42.843 87.978a9.293 9.293 0 0 1-4.855-1.025s.4 5.433 7.188 5.65z" transform="translate(-37.988 -86.954)"/>
                        </g>
                    </g>
                </g>
                <path id="Path_158" d="M17.867 103.521c11.78-7.768 31.624-9.4 42.862-1.641 11.083 7.613 5.742 52.648 5.742 52.648l-23.01 6.932s-44.478-33.166-25.594-57.939" class="cls-11" transform="translate(-2.371 -17.395)"/>
                <path id="Path_159" d="M43.787 176.09l3.347 8.072a17 17 0 0 1-3.281 13.519l-8.343 10.754 4.6 3.281 12.09-9.63a21.139 21.139 0 0 0 7.973-16.406v-4.1l-1.5-5.266z" class="cls-6" transform="translate(-6.38 -31.639)"/>
                <g id="Group_148" class="cls-4" transform="translate(25.135 88.792)">
                    <g id="Group_147">
                        <g id="Group_146" clip-path="url(#clip-path-8)">
                            <path id="Path_160" d="M34.635 108.24s8.729 4.1 7.564 17.342-1.166 28.793 19.483 28.006v6.932l-13.528 2.034-16.119-15.587-1.395-23.953z" transform="translate(-30.64 -108.24)"/>
                        </g>
                    </g>
                </g>
                <g id="Group_151" class="cls-4" transform="translate(65.396 104.985)">
                    <g id="Group_150">
                        <g id="Group_149" clip-path="url(#clip-path-9)">
                            <path id="Path_161" d="M80.975 152.967l2.2 2.026 13.033-27.013-16.488 10.968z" transform="translate(-79.72 -127.98)"/>
                        </g>
                    </g>
                </g>
                <path id="Path_162" d="M55.35 180.488l4.479 2.937 16.489-5.1a6.169 6.169 0 0 1 7.718 4.068c.037.12.07.24.1.362l3.052 12.567 5.595-.468-1.814-16.981a12.575 12.575 0 0 0-12.3-11.238l-12.729-.175z" class="cls-6" transform="translate(-9.945 -29.909)"/>
                <path id="Path_163" fill="#ffd200" d="M131.37 104.542l8.113-4.865-11.8-19.688-62.85 42.346a23.224 23.224 0 1 0 5.2 7.9l39.1-26.373 7.695 11.919 7.942-5.127-7.793-12.075 7.719-5.193zm-82.943 48.022a13.781 13.781 0 1 1 13.781-13.781 13.781 13.781 0 0 1-13.781 13.781" transform="translate(-4.531 -14.372)"/>
                <path id="Path_164" d="M30.361 113.48c.82-8.7-9.844-13.576-15.8-7.145C9.8 111.494 5.3 120.2 5.743 134.513c.911 29.532 9.688 36.472 31.993 35.044a13.048 13.048 0 0 0 7.851-.911 1.969 1.969 0 0 0-.5-3.675c-2.509-.492-5.651-.82-7.383.139 0 0-20.384-6.448-14.4-30.541.049 0 6.095-11.009 7.055-21.09" class="cls-10" transform="translate(-1.027 -18.577)"/>
                <path id="Path_165" d="M14.242 106.042c-4.233 3.5-9.393 10.4-9.3 23.182l21.114 2.363s12.3-20.459 1.034-26.89a11.394 11.394 0 0 0-12.846 1.345" class="cls-11" transform="translate(-.887 -18.563)"/>
                <g id="Group_154" class="cls-12" transform="translate(4.051 84.748)">
                    <g id="Group_153">
                        <g id="Group_152" clip-path="url(#clip-path-10)">
                            <path id="Path_166" d="M14.242 106.042c-4.233 3.5-9.393 10.4-9.3 23.182l21.114 2.363s12.3-20.459 1.034-26.89a11.394 11.394 0 0 0-12.846 1.345" class="cls-14" transform="translate(-4.939 -103.311)"/>
                        </g>
                    </g>
                </g>
                <path id="Path_167" d="M99.82 127.048s5.02-6.169 7.882-3.65-2.4 10.115-7.882 3.65" class="cls-10" transform="translate(-17.935 -22.063)"/>
                <g id="Group_157" class="cls-4" transform="translate(4.774 110.744)">
                    <g id="Group_156">
                        <g id="Group_155" clip-path="url(#clip-path-11)">
                            <path id="Path_168" d="M5.82 135v6.218l17.554-.968 1.486-2.97z" transform="translate(-5.82 -135)"/>
                        </g>
                    </g>
                </g>
                <path id="Path_169" d="M171.1 36.233h-6.251v-3.244a13.975 13.975 0 0 0-27.95-.016v3.261h-6.252v-3.245a20.226 20.226 0 0 1 40.453 0z" class="cls-14" transform="translate(-23.474 -2.293)"/>
                <path id="Path_170" d="M155 49.8a5.234 5.234 0 1 1-5.234 5.234A5.235 5.235 0 0 1 155 49.8" class="cls-9" transform="translate(-26.909 -8.948)"/>
                <path id="Rectangle_75" d="M0 0H5.733V13.948H0z" class="cls-9" transform="translate(125.507 48.779)"/>
            </g>
        </g>
    </g>
</svg>
