<svg xmlns="http://www.w3.org/2000/svg" width="1055.345" height="496.462" viewBox="0 0 1055.345 496.462">
    <defs>
        <style>
            .cls-1{fill:#f4a28c}.cls-2,.cls-3,.cls-6{fill:#e6e6e6}.cls-2{opacity:.3}.cls-11,.cls-13,.cls-2,.cls-3,.cls-7{isolation:isolate}.cls-3{opacity:.45}.cls-4{fill:#ffd200}.cls-7{opacity:.08}.cls-8{fill:#24285b}.cls-11,.cls-9{fill:#fff}.cls-10{fill:#fc0a0f}.cls-11{opacity:.46}.cls-13{fill:#ce8172;opacity:.31}.cls-15{fill:#c9c9c9}
        </style>
    </defs>
    <g id="Group_2997" transform="translate(-148.216 38.514)">
        <path id="Path_2263" d="M689.814 919.74l-1.69 14.726 8.189.336-2.063-10.849z" class="cls-1" transform="translate(-316.197 -561.201)"/>
        <path id="Path_2264" d="M944.763 332.424c-49.355 33.978-78.657 96.331-73.96 161.422 2.359 33.283 15.63 62.058 42.257 82.933 100.207 78.594 516.874 79.794 566.651-2.844S1442.447 339.46 1281.7 370.552c-101.156 19.591-209.472-125.843-336.937-38.128z" class="cls-2" transform="translate(-422.895 -200.619)"/>
        <ellipse id="Ellipse_263" cx="527.672" cy="19.928" class="cls-3" rx="527.672" ry="19.928" transform="translate(148.216 418.093)"/>
        <circle id="Ellipse_264" cx="35.937" cy="35.937" r="35.937" class="cls-4" transform="translate(721.14 22.428)"/>
        <circle id="Ellipse_265" cx="68.504" cy="68.504" r="68.504" transform="rotate(-45 400.552 -767.747)" style="isolation:isolate" fill="#ffd200" opacity="0.15"/>
        <path id="Path_2265" d="M1946.346 414.942a14.24 14.24 0 0 0-14.24-14.24 13.88 13.88 0 0 0-2.3.19 19.169 19.169 0 0 0-16.852-10.111h-.7a22.792 22.792 0 1 0-44.237 0h-.695a19.211 19.211 0 0 0-1.273 38.4q.636.021 1.273 0h66.629v-.126a14.262 14.262 0 0 0 12.395-14.113z" class="cls-6" transform="translate(-995.175 -234.842)"/>
        <path id="Path_2266" d="M865.415 595.171a10.806 10.806 0 0 0-10.785-10.806 11.43 11.43 0 0 0-1.727.147 14.577 14.577 0 0 0-12.829-7.647h-.527a17.273 17.273 0 1 0-33.472 0h-.527a14.556 14.556 0 0 0-1.107 29.091q.553.021 1.107 0H856.1v-.105a10.764 10.764 0 0 0 9.315-10.68z" class="cls-6" transform="translate(-376.117 -347.775)"/>
        <g id="Group_2991" transform="translate(662.181 283.321)">
            <path id="Rectangle_2116" d="M0 0H188.006V148.368H0z" class="cls-4" transform="translate(105.026 5.488)"/>
            <path id="Rectangle_2117" d="M0 0H188.006V148.368H0z" class="cls-7" transform="translate(105.026 5.488)"/>
            <path id="Rectangle_2118" d="M0 0H138.5V148.368H0z" class="cls-4" transform="translate(7.067 5.488)"/>
            <path id="Rectangle_2119" d="M0 0H44.845V79.973H0z" class="cls-8" transform="translate(76.327 73.883)"/>
            <path id="Rectangle_2120" d="M0 0H95.403V51.461H0z" class="cls-9" transform="translate(174.455 48.153)"/>
            <path id="Rectangle_2121" d="M0 0H95.403V51.461H0z" class="cls-7" transform="translate(174.455 48.153)"/>
            <path id="Rectangle_2122" d="M0 0H20.675V46.574H0z" class="cls-9" transform="translate(32.985 75.65)"/>
            <circle id="Ellipse_266" cx="4.736" cy="4.736" r="4.736" class="cls-10" transform="translate(104.97 110.59)"/>
            <path id="Rectangle_2123" d="M0 0H298.07V17.028H0z" class="cls-4"/>
            <path id="Rectangle_2124" d="M0 0H298.07V17.028H0z" class="cls-11"/>
            <path id="Rectangle_2125" d="M0 0H152.503V17.028H0z" class="cls-7" transform="translate(145.567)"/>
            <path id="Rectangle_2126" d="M0 0H104.782V9.398H0z" class="cls-4" transform="translate(169.982 95.009)"/>
            <path id="Rectangle_2127" d="M0 0H104.782V9.398H0z" class="cls-11" transform="translate(169.982 95.009)"/>
            <path id="Rectangle_2128" d="M0 0H104.782V9.398H0z" class="cls-7" transform="translate(169.982 95.009)"/>
        </g>
        <g id="Group_2992" transform="translate(518.794 320.341)">
            <path id="Path_2267" d="M1242.034 968.391l4.489-.776s1.018 2.507-3.52 3.329z" class="cls-8" transform="translate(-1159.388 -909.58)"/>
            <path id="Path_2268" d="M1135.134 935.159a7.657 7.657 0 0 1 3.653-10.077 8.394 8.394 0 0 1 5.338-.968c3.109.717 8.977 10.466 12.552 16.895a8.786 8.786 0 0 0 9.388 4.356l13.159-2.612 1.37 3.6-21.611 7.26a8.182 8.182 0 0 1-6.224-.42 37.616 37.616 0 0 1-17.625-18.034z" class="cls-10" transform="translate(-1096.378 -884.024)"/>
            <path id="Path_2269" d="M1135.134 935.159a7.657 7.657 0 0 1 3.653-10.077 8.394 8.394 0 0 1 5.338-.968c3.109.717 8.977 10.466 12.552 16.895a8.786 8.786 0 0 0 9.388 4.356l13.159-2.612 1.37 3.6-21.611 7.26a8.182 8.182 0 0 1-6.224-.42 37.616 37.616 0 0 1-17.625-18.034z" class="cls-7" transform="translate(-1096.378 -884.024)"/>
            <path id="Rectangle_2129" d="M0 0H33.387V31.017H0z" class="cls-4" transform="rotate(-17.06 137.637 -177.3)"/>
            <path id="Rectangle_2130" d="M0 0H33.387V31.017H0z" class="cls-7" transform="rotate(-17.06 137.637 -177.3)"/>
            <path id="Rectangle_2131" d="M0 0H33.387V31.017H0z" class="cls-4" transform="rotate(-17.06 144.85 -129.318)"/>
            <ellipse id="Ellipse_267" cx="56.213" cy="8.744" class="cls-3" rx="56.213" ry="8.744" transform="translate(0 104.421)"/>
            <path id="Path_2270" d="M1235.708 1048.93a2.6 2.6 0 0 0 1.986 1.653c1.411.105 1.79 1.475.53 1.849s-4.543-1.219-4.543-1.219l.073-2.032z" class="cls-10" transform="translate(-1154.496 -957.203)"/>
            <path id="Path_2271" d="M1153.684 1092.484a2.573 2.573 0 0 0 .63 2.507c1.087.913.576 2.251-.662 1.8s-2.95-3.653-2.95-3.653l1.255-1.6z" class="cls-10" transform="translate(-1105.899 -982.159)"/>
            <path id="Path_2272" d="M1110.37 923.295l4.428 5.966-4.2 5.1-5.7-10.975z" class="cls-1" transform="translate(-1079.073 -883.624)"/>
            <path id="Path_2273" d="M1095.388 903.71a4.384 4.384 0 0 1 6.509-3.414c3.043 1.666 7.019 4.607 4.626 7.7-3.662 4.735-9.935.191-9.935.191a7.983 7.983 0 0 1-1.2-4.477z" class="cls-1" transform="translate(-1073.503 -869.827)"/>
            <path id="Path_2274" d="M1104.66 916.345s-1.538-.638-1.614 1 2.278 1.608 2.68.677-1.066-1.677-1.066-1.677z" class="cls-1" transform="translate(-1077.988 -879.482)"/>
            <path id="Path_2275" d="M1091.679 896.782c-2.151 4.013-4.467 4.83-1.276 7.306s1.825 6.342 6.336 5.36c2.808-.638 1.582-3.65.255-5.858a4.549 4.549 0 0 1-.083-4.543c.606-1.091 1.014-2.349.383-3.19s-4.606-.932-5.615.925z" class="cls-8" transform="translate(-1069.666 -867.219)"/>
            <path id="Path_2276" d="M1102.953 933.077a11.475 11.475 0 0 1 4.89-8.219c5.228-3.653 15.068-10.913 20.091-6.552 6.89 5.968 9.588 37.382 9.588 37.382l-19 7.9s-17.072-15.817-15.569-30.511z" class="cls-10" transform="translate(-1077.88 -879.91)"/>
            <path id="Path_2277" d="M1109.317 933.464s.5 32.359 27.478 25.684l.676 6.21-18.995 7.9a52.993 52.993 0 0 1-15.068-23.785s-2.283-7.548 1.9-12.584a12.447 12.447 0 0 1 4.009-3.425z" class="cls-7" transform="translate(-1077.838 -889.58)"/>
            <path id="Path_2278" d="M1087.737 898.99l11.62-11.855a.332.332 0 0 0-.39-.523l-3.439 1.8a4.423 4.423 0 0 1-3.829.2 4.392 4.392 0 0 0-3.191-.338c-2.048.82-8.071 5.733-.771 10.716z" class="cls-4" transform="translate(-1066.968 -862.121)"/>
            <path id="Path_2279" d="M1105.2 911.521s-2.316-2.074-3.044.038 2.438 3.312 3.886 2.189-.842-2.227-.842-2.227z" class="cls-1" transform="translate(-1077.406 -876.196)"/>
            <path id="Path_2280" d="M1140.652 1015.886s4.931 5.173 10.858 3.169 22.766-12.6 27.36 5.849l3.384-.584s.169-11.872-6.7-16.128-15.9-.21-15.9-.21z" class="cls-8" transform="translate(-1100.014 -932.204)"/>
            <path id="Path_2281" d="M1144.619 1025.692s13.776 8.89 2.785 24.689l3.018 1.238s13.881-10.58 5.361-30.228z" class="cls-8" transform="translate(-1102.337 -941.074)"/>
            <path id="Path_2282" d="M1137.359 929.106a7.653 7.653 0 0 1 3.653-10.077 8.435 8.435 0 0 1 5.343-.972c3.1.721 8.972 10.466 12.547 16.895a8.8 8.8 0 0 0 9.392 4.361l13.159-2.6 1.37 3.6-21.611 7.26a8.219 8.219 0 0 1-6.224-.416 37.658 37.658 0 0 1-17.629-18.051z" class="cls-10" transform="translate(-1097.679 -880.478)"/>
            <path id="Path_2283" d="M1137.359 929.106a7.653 7.653 0 0 1 3.653-10.077 8.435 8.435 0 0 1 5.343-.972c3.1.721 8.972 10.466 12.547 16.895a8.8 8.8 0 0 0 9.392 4.361l13.159-2.6 1.37 3.6-21.611 7.26a8.219 8.219 0 0 1-6.224-.416 37.658 37.658 0 0 1-17.629-18.051z" class="cls-11" transform="translate(-1097.679 -880.478)"/>
            <path id="Path_2284" d="M1245.208 963.4l4.489-.781s1.018 2.507-3.521 3.329z" class="cls-8" transform="translate(-1161.247 -906.656)"/>
            <path id="Rectangle_2132" d="M0 0H28.428V26.41H0z" class="cls-4" transform="rotate(-17.06 51.868 -156.911)"/>
            <path id="Rectangle_2133" d="M0 0H28.428V26.41H0z" class="cls-7" transform="rotate(-17.06 51.868 -156.911)"/>
            <path id="Rectangle_2134" d="M0 0H28.428V26.41H0z" class="cls-4" transform="rotate(-17.06 58.024 -116.044)"/>
            <path id="Path_2285" d="M1148.674 892.86l38.054-14.771 1.237 4.036-11.653 3.89-27.209 8.036z" transform="translate(-1104.712 -857.149)" style="isolation:isolate" opacity="0.05"/>
        </g>
        <g id="Group_2993" transform="translate(995.544 341.268)">
            <ellipse id="Ellipse_268" cx="71.95" cy="9.177" class="cls-3" rx="71.95" ry="9.177" transform="translate(0 82.443)"/>
            <path id="Path_2286" d="M2438.942 938.9c1.981 9.5-22.084 14.88-22.084 14.88l.992 4.752c53.707-9.791 25.588-26.659 18.018-35" class="cls-1" transform="translate(-2324.174 -904.694)"/>
            <path id="Path_2287" d="M2412.994 999.935l-.454.265a7.415 7.415 0 0 1-5.383.841l-.908-.206a1.683 1.683 0 0 1-1.262-2l.244-1.043a3.146 3.146 0 0 1 3.032-2.431l3.15-.029z" class="cls-8" transform="translate(-2317.198 -946.739)"/>
            <path id="Path_2288" d="M2438.942 938.9c1.981 9.5-22.084 14.88-22.084 14.88l.992 4.752c53.707-9.791 25.588-26.659 18.018-35" class="cls-7" transform="translate(-2324.174 -904.694)"/>
            <path id="Path_2289" d="M2499.223 1061.955l2.524.879s.357 4.336-.6 5.577-2.322.223-1.83-1.388a3.093 3.093 0 0 0-.984-2.919z" class="cls-10" transform="translate(-2371.889 -985.758)"/>
            <path id="Path_2290" d="M2447.317 1090.862l.58 2.607s-3.487 2.608-5.047 2.427-1.413-1.851.214-2.283a3.1 3.1 0 0 0 1.964-2.376z" class="cls-10" transform="translate(-2338.757 -1002.687)"/>
            <path id="Path_2291" d="M2405.042 890.718a4.075 4.075 0 0 1 3.369 3.3l.312 4.184a5.031 5.031 0 0 1-2.127 5.038 2.286 2.286 0 0 1-3.184-.414 28.294 28.294 0 0 1-3.306-6.783c-1-2.592 1.879-6.012 4.936-5.325z" class="cls-1" transform="translate(-2314.245 -885.421)"/>
            <path id="Path_2292" d="M2415.563 906.8l5.942 9.044 7.126-4.764-12.96-10.661z" class="cls-1" transform="translate(-2323.415 -891.155)"/>
            <path id="Rectangle_2135" d="M0 0H69.906V1.872H0z" class="cls-4" transform="rotate(-38.95 143.994 -28.407)"/>
            <path id="Rectangle_2136" d="M0 0H69.906V1.872H0z" class="cls-11" transform="rotate(-38.95 143.994 -28.407)"/>
            <path id="Path_2293" d="M2395 893.857c-2.592 0-1.707-1.446-2.159-3.184-.217-.8-1.764-2.509-.962-2.318 1.828.452 3.649-1.548 5.465-1.586a17.346 17.346 0 0 1 2.166.1 4.648 4.648 0 0 1 3.776 2.872l2.369 5.337a3.082 3.082 0 0 1-3.91.338 3.783 3.783 0 0 1-1.637-3.822 18.344 18.344 0 0 1-3.726 1.911 4.117 4.117 0 0 1-1.382.352z" class="cls-8" transform="translate(-2309.409 -883.159)"/>
            <path id="Path_2294" d="M2415.844 905.666c1.554-.956.567-3.261-.675-2.866s-.605 2.013-.605 2.013z" class="cls-1" transform="translate(-2322.734 -892.522)"/>
            <path id="Path_2295" d="M2446.344 1016.1a30.321 30.321 0 0 1-7.192 11.078c-5.535 5.644 1.737 18.892 1.737 18.892l-3.087 1.094a29.747 29.747 0 0 1-7.73-14.556c-2.1-9.412 7.742-17.382 7.742-17.382z" class="cls-8" transform="translate(-2331.74 -958.39)"/>
            <path id="Path_2296" d="M2468.345 1007.387c1.4 4.395-6.7 9.135-11.746 11.612a1.821 1.821 0 0 0 .126 3.327l12.8 5.122-1.5 4.134-17.02-5.564a6.414 6.414 0 0 1-2.986-10.14l5.468-6.729s12.848-8.079 14.858-1.762z" class="cls-8" transform="translate(-2341.583 -952.386)"/>
            <path id="Path_2297" d="M2404.31 912.733l-1.726.382a.726.726 0 0 1-.866-.873l.471-2.108z" class="cls-1" transform="translate(-2315.296 -896.844)"/>
            <path id="Path_2298" d="M2417.678 915.032c1.91-3.585-.784-5.42-.784-5.42a5.6 5.6 0 0 1-.917 2.828z" class="cls-13" transform="translate(-2323.658 -896.538)"/>
            <path id="Path_2299" d="M2391 880.637a7 7 0 0 0-.681 6.566 5.383 5.383 0 0 1 .14 3.669.3.3 0 0 0 .414.363l12.444-5.9c-.432-8.118-9.532-9.073-12.317-4.698z" class="cls-4" transform="translate(-2308.324 -878.059)"/>
            <path id="Path_2300" d="M2414.181 947.183c6.725 1.968 10.4 11.221 10.4 11.221l22.075-4.837s-.929-18.9-7.036-28.632a16.72 16.72 0 0 0-30.709 6.115c-1.258 7.503 1.53 15.05 5.27 16.133z" class="cls-10" transform="translate(-2319.339 -900.9)"/>
            <path id="Path_2301" d="M2453.181 948.357l6.577 15.561-13.828 6.482s-5.577-1.359-6.09-2.313-3.423-5-3.423-5 15.645-2.086 8.895-9.749a26.988 26.988 0 0 1-6.83-16.074z" class="cls-7" transform="translate(-2335.628 -912.731)"/>
            <path id="Rectangle_2137" d="M0 0H68.925V1.871H0z" class="cls-4" transform="rotate(-30.669 179.403 -52.22)"/>
            <path id="Rectangle_2138" d="M0 0H68.925V1.871H0z" class="cls-11" transform="rotate(-30.669 179.403 -52.22)"/>
            <path id="Path_2302" d="M2459.4 948.995c-.324 9.7-19.346 7.965-19.346 7.965v5.3c44.992 3.444 25.112-24.141 19.7-34.032a21.644 21.644 0 0 0-9.025-9.038 6.664 6.664 0 0 0-9.719 4.916c-1.048 8.558 18.652 17.07 18.39 24.889z" class="cls-1" transform="translate(-2337.756 -901.703)"/>
            <path id="Path_2303" d="M2450.358 936.908l11.271-8.092c-5.9-12.924-13.988-11.494-13.988-11.494-16.591 5.478 2.717 19.586 2.717 19.586z" class="cls-10" transform="translate(-2338.26 -901.026)"/>
            <path id="Path_2304" d="M2450.358 936.908l11.271-8.092c-5.9-12.924-13.988-11.494-13.988-11.494-16.591 5.478 2.717 19.586 2.717 19.586z" transform="translate(-2338.26 -901.026)" style="isolation:isolate" fill="#fff" opacity="0.3"/>
            <path id="Path_2305" d="M2430.258 1014.9l-.518.088a7.391 7.391 0 0 1-5.333-1.119l-.782-.513a1.682 1.682 0 0 1-.463-2.322l.6-.883a3.154 3.154 0 0 1 3.7-1.194l2.944 1.093z" class="cls-8" transform="translate(-2327.703 -954.609)"/>
            <path id="Path_2306" d="M2279.224 1027.027l15.048 12.613 26.769-16.276-2.183-18.736z" class="cls-4" transform="translate(-2243.568 -952.184)"/>
            <path id="Path_2307" d="M2329.458 1031.709l-26.769 16.276-9.093-7.62s15.51-2.969 24.12-7.634 10.245-13.853 10.245-13.853z" class="cls-7" transform="translate(-2251.985 -960.529)"/>
            <path id="Path_2308" d="M2270.931 1020.625c-15.536-13.741.571-25.337 8.861-22.148 4.322 1.669 10.453 3.859 16.917-1.071s11.776 2 11.776 2z" class="cls-15" transform="translate(-2234.902 -946.918)"/>
            <circle id="Ellipse_269" cx="4.096" cy="4.096" r="4.096" class="cls-8" transform="translate(46.393 85.008)"/>
            <circle id="Ellipse_270" cx="1.762" cy="1.762" r="1.762" class="cls-4" transform="translate(48.727 87.342)"/>
            <path id="Path_2309" d="M2282.724 975.705c.357-2.166.349-6.048-7.692-1.842a7.324 7.324 0 0 0-4.122 6.918 1.922 1.922 0 0 0 3.537 1.055c2.613-4.003 8.025-4.575 8.277-6.131z" class="cls-15" transform="translate(-2238.7 -933.069)"/>
            <circle id="Ellipse_271" cx="2.864" cy="2.864" r="2.864" class="cls-15" transform="translate(48.836 43.309)"/>
            <path id="Rectangle_2139" d="M0 0H12.562V6.191H0z" class="cls-15" transform="translate(26.327 86.829)"/>
            <path id="Rectangle_2140" fill="#dbdbdb" d="M0 0H12.562V6.191H0z" transform="translate(20.763 80.517)"/>
            <path id="Rectangle_2141" fill="#a5a5a5" d="M0 0H12.562V6.191H0z" transform="translate(13.765 86.829)"/>
        </g>
        <path id="Path_2310" d="M480.425 966.384c18.192 4.206 31.993 15.532 35.116 29.532 2.646 11.8-3.091 26.2-33.506 32.539-31.044 6.477-117.224 8.722-132.462-10.527s-10.894-43.714 22.254-51.986c23.241-5.799 73.08-7.734 108.598.442z" class="cls-2" transform="translate(-112.998 -585.311)"/>
        <ellipse id="Ellipse_272" cx="90.193" cy="5.09" class="cls-3" rx="90.193" ry="5.09" transform="translate(235.508 428.187)"/>
        <path id="Path_2311" d="M394.34 1083.071l-2.292 1.325 2.435 3.869a.787.787 0 0 0 1.447-.354 5.819 5.819 0 0 0-1.59-4.84z" class="cls-10" transform="translate(-142.8 -656.856)"/>
        <path id="Path_2312" d="M398.066 1023.2l2.456 10.88a10.1 10.1 0 0 1-1.867 8.411l-3.785 4.883 2.292 2.246 7.486-7.549a9.893 9.893 0 0 0 2.839-6.14l1.131-13.391z" class="cls-8" transform="translate(-144.453 -621.404)"/>
        <path id="Path_2313" d="M397.13 999.79s-2.751 8.891 2.443 10.859 16.44 28.292 16.44 28.292l3.722-1.43s-7.171-22.912-6.641-32.072z" class="cls-8" transform="translate(-145.35 -608.082)"/>
        <path id="Path_2314" d="M446.148 1091.2l1.262 2.326 3.924-2.342a.786.786 0 0 0-.32-1.455 5.822 5.822 0 0 0-4.866 1.471z" class="cls-10" transform="translate(-174.484 -660.729)"/>
        <path id="Path_2315" d="M428.678 927.62a20.141 20.141 0 0 1-.378 5.349 1.643 1.643 0 0 1-2 1.128 3.593 3.593 0 0 1-2.738-2.738l-.9-2.841a2.9 2.9 0 0 1 1.338-3.066c1.842-1.292 4.651.197 4.678 2.168z" class="cls-1" transform="translate(-160.69 -564.263)"/>
        <path id="Path_2316" d="M420.441 934.738l-1.889 10.408 5.814.635-.958-7.835z" class="cls-1" transform="translate(-158.322 -569.985)"/>
        <path id="Path_2317" d="M436.342 936.284l.871 1.265a.515.515 0 0 1-.34.805l-1.237.2z" class="cls-1" transform="translate(-168.327 -570.89)"/>
        <path id="Path_2318" d="M428.32 944.955a3.831 3.831 0 0 1-1.867-1.166 6.049 6.049 0 0 0 2.124 3.893z" class="cls-13" transform="translate(-162.949 -575.285)"/>
        <path id="Path_2319" d="M426.242 925.474a5.675 5.675 0 0 1-.739.143 4.9 4.9 0 0 0-1.04.274l-.268.093a1.051 1.051 0 0 0-.685.914 2.844 2.844 0 0 1-3.011 2.945s-2.283-3.952-.066-6.734a4.733 4.733 0 0 1 4.068-1.938 2.268 2.268 0 0 1 .8.225 2.782 2.782 0 0 1 .936.919 13.507 13.507 0 0 1 .958 1.566 1.677 1.677 0 0 1 .23.712c-.017.596-.745.761-1.183.881z" class="cls-4" transform="translate(-158.857 -562.024)"/>
        <path id="Path_2320" d="M426.635 936.823a.81.81 0 0 0 .164-.793c-.148-.444-.465-1.041-1.057-.991s-.789 1-.416 1.643a.816.816 0 0 0 1.309.121z" class="cls-1" transform="translate(-162.179 -570.159)"/>
        <path id="Path_2321" d="M399.14 930.291l3.2.349s10.645 2.056 14.615-1.9 3.365-11.385 3.365-11.385l2.767.181s4.786 18.6-12.949 22.446a9.337 9.337 0 0 0-6.8 6.073l-3.1 9.517L384 949.961l.2-8.369a8.384 8.384 0 0 0-3.243-6.859c-4.016-3.058-9.589-9.648-4.437-20.263l3.137.206s-3.799 15.699 19.483 15.615z" class="cls-10" transform="translate(-132.489 -558.114)"/>
        <path id="Path_2322" d="M377.655 914.587s-4.534 10.464 4.134 17.735c4.626 3.86 6.494 6.5 7.255 8.134 1.1 2.359 5.295 13.088 5.295 13.088l-10.405-3.6.185-7.759a8.109 8.109 0 0 0-3.23-7.453s-11.044-7-4.424-20.267z" class="cls-7" transform="translate(-132.436 -558.114)"/>
        <path id="Path_2323" d="M379.993 911.769l-.429-1.989 2.687.181-.13 1.951z" class="cls-1" transform="translate(-135.489 -555.368)"/>
        <path id="Path_2324" d="M484.862 914.919l-.429-4.367 2.687.388-.13 4.293z" class="cls-1" transform="translate(-196.906 -555.82)"/>
        <path id="Path_2325" d="M549.878 938.433a19.422 19.422 0 0 1 .958 5.112 1.577 1.577 0 0 1-1.606 1.547 3.469 3.469 0 0 1-3.243-1.91l-1.547-2.445a2.815 2.815 0 0 1 .512-3.207c1.415-1.644 4.414-.936 4.926.903z" class="cls-1" transform="translate(-231.879 -571.079)"/>
        <path id="Path_2326" d="M545.522 947.648l.785 10.223 5.605-.833-2.82-7.1z" class="cls-1" transform="translate(-232.682 -577.545)"/>
        <path id="Path_2327" d="M549.393 947.865s-.3-1.19-1.161-.868-.434 1.987.8 1.862z" class="cls-1" transform="translate(-234.006 -577.131)"/>
        <path id="Path_2328" d="M564.286 1024.363l2.746 24.834h-2.746l-6.691-21.268z" class="cls-8" transform="translate(-239.753 -622.474)"/>
        <path id="Path_2329" d="M559.085 945.609l1.13.97a.5.5 0 0 1-.125.839l-1.112.494z" class="cls-1" transform="translate(-240.563 -576.351)"/>
        <path id="Path_2330" d="M552.914 955.953a3.72 3.72 0 0 1-2.035-.636 5.915 5.915 0 0 0 2.945 3.124z" class="cls-13" transform="translate(-235.82 -582.037)"/>
        <path id="Path_2331" d="M551.722 965.461s9.728 6.771 4.8 13.037-7.15 9.728-7.15 9.728l-11.772-1.232s-1.35-9.109-4.185-13.908-.492-8.374 2.465-9.109 7.12-3.193 15.842 1.484z" class="cls-10" transform="translate(-224.842 -586.345)"/>
        <path id="Path_2332" d="M543.058 962.671s5.467 4.887 2.712 10.2-2.372 14.72-2.372 14.72l-5.522-.576s-1.48-8.516-3.167-11.877a34.026 34.026 0 0 1-2.044-4.4c-.467-1.523 4.777-8.049 4.777-8.049z" transform="translate(-225.135 -586.344)" style="isolation:isolate" opacity="0.09"/>
        <path id="Path_2333" d="M544.667 1021.389s-1.22 3.466.421 5.366 10.888 6.729 10.888 6.729l-10.888 1.8.576 2.544s12.31.9 14.606-2.624-6.729-10.75-6.729-10.75l2.9-1.846z" class="cls-8" transform="translate(-231.926 -620.732)"/>
        <path id="Path_2334" d="M529.055 935.788s2.154 10.883-4.9 12.1-9.378-1.868-10.966-4.463 11.9.661 10.883-7.14 5.671-7.462 7.843-5.195-2.86 4.698-2.86 4.698z" class="cls-4" transform="translate(-213.668 -567.025)"/>
        <path id="Path_2335" d="M575.627 1084.3s2.46 4.206.862 4.34-2.746-4.34-2.746-4.34z" class="cls-10" transform="translate(-249.21 -657.575)"/>
        <path id="Path_2336" d="M543.9 1058.089s-1.459 3.583-2.7 2.561 2.04-4.732 2.04-4.732z" class="cls-10" transform="translate(-229.99 -640.954)"/>
        <path id="Path_2337" d="M525.277 943.239c4.534 1.9 7.713-4.626 3.507-7.179a25.2 25.2 0 0 0-3.7-1.876c-4.513-1.8-11.078-11.982-7.15-18.795 0 0 2.216-4.08-.328-4.748s-1.888 4.584-1.888 4.584-6.565 10.678-.656 18.307c3.213 4.13 6.763 8.26 10.215 9.707z" class="cls-1" transform="translate(-213.399 -555.838)"/>
        <path id="Path_2338" d="M698.7 935.74a3.717 3.717 0 0 1-1.854-1 5.791 5.791 0 0 0 2.279 3.589z" class="cls-13" transform="translate(-321.303 -569.984)"/>
        <path id="Path_2339" d="M730.373 1092.052a2.6 2.6 0 0 0 2.237 1.314c1.414-.128 2.021 1.168.83 1.753s-4.673-.462-4.673-.462l-.333-2.57z" class="cls-10" transform="translate(-339.804 -662.115)"/>
        <path id="Path_2340" d="M667.844 1092.052a2.617 2.617 0 0 0 2.243 1.314c1.414-.128 2.016 1.168.83 1.753s-4.709-.462-4.709-.462l-.333-2.57z" class="cls-10" transform="translate(-303.167 -662.115)"/>
        <path id="Path_2341" d="M661.817 920.226l3.844.164s12.881 1.618 17.316-3.418 3.1-13.863 3.1-13.863h3.323s7.18 21.843-13.706 27.831a11.17 11.17 0 0 0-7.641 7.793l-1.712 6.187h-21.075l-.426-10.013a10.042 10.042 0 0 0-4.417-7.939c-5.036-3.365-12.2-10.773-6.882-23.859h3.768s-3.271 19.051 24.508 17.117z" class="cls-10" transform="translate(-283.131 -551.461)"/>
        <path id="Path_2342" d="M701.123 937.291s22.55 7.723 24.718-9.932c0 0-1.945 9.383-18.841 7.285l-4.5-.234z" class="cls-7" transform="translate(-323.81 -565.663)"/>
        <path id="Path_2343" d="M663.973 1004.017h21.078l8.669 36.851h-3.908l-11.48-27.428a.689.689 0 0 0-1.32.245l-.129 4.878a35.01 35.01 0 0 1-6 17.614l-3.19 4.673H663.6l2.921-5.561c3.447-6.754 2.81-14.29.543-21.522z" class="cls-8" transform="translate(-301.837 -610.558)"/>
        <path id="Path_2344" d="M634.913 903.155s-4.592 12.853 6.339 20.862c5.807 4.247 8.272 7.256 9.306 9.143a44.7 44.7 0 0 0 5.258 7.711l3.505 4.049h-14.114l-.4-9.3a9.708 9.708 0 0 0-4.446-8.652s-13.746-7.489-6.882-23.859z" class="cls-7" transform="translate(-283.071 -551.461)"/>
        <path id="Path_2345" d="M695.821 943.727s-4.916 5.648-12.69 0c0 0 6.251-3.6 12.69 0" class="cls-1" transform="translate(-313.273 -574.312)"/>
        <path id="Path_2346" d="M636.628 899.84l-.672-2.343h3.225v2.343z" class="cls-1" transform="translate(-285.645 -548.175)"/>
        <path id="Path_2347" d="M703.088 895.183l-.672-2.343h3.225v2.343z" class="cls-1" transform="translate(-324.567 -545.447)"/>
        <g id="Group_2994" transform="translate(194.68 249.782)">
            <path id="Rectangle_2142" d="M0 0H52.55V30.37H0z" class="cls-4" transform="rotate(-89.509 93.238 -41.038)"/>
            <path id="Path_2348" d="M260.353 802.039l58.136-75.812 64.287 76.861z" class="cls-8" transform="translate(-260.353 -697.652)"/>
            <path id="Path_2349" d="M529.561 727.332l-128.9-1.105 64.287 76.861 6.5.056 122.406 1.049z" class="cls-8" transform="translate(-342.523 -697.652)"/>
            <path id="Path_2350" d="M529.561 727.332l-128.9-1.105 64.287 76.861 6.5.056 122.406 1.049z" transform="translate(-342.523 -697.652)" style="isolation:isolate" opacity="0.19"/>
            <circle id="Ellipse_273" cx="13.191" cy="13.191" r="13.191" class="cls-9" transform="translate(44.534 63.23)"/>
        </g>
        <path id="Path_2351" d="M557.736 930.458s6.149-.3 6.4-8.26-8.954-11.982-8.954-11.982-4.26-.244-2.784-2.788 4.765.736 4.765.736 13.29 3.121 13.038 14.363-6.237 15.982-6.237 15.982z" class="cls-1" transform="translate(-236.525 -553.424)"/>
        <g id="Group_2995" transform="translate(914.089 411.016)">
            <path id="Path_2352" d="M2001.9 1073.453s-6.871-8.767 3.392-11.177-2.476-14.247 7.082-15.759 7.96 10.958 7.96 10.958 6.6-5.03 11.142-.8-1.82 8.865-1.82 8.865 9.186 2.806 3.454 7.945z" class="cls-6" transform="translate(-1998.382 -1046.39)"/>
            <path id="Path_2353" d="M2013.172 1103.973s-4.37-6.575-10.808-5.8-5.757 5.8-5.757 5.8z" class="cls-15" transform="translate(-1996.587 -1076.681)"/>
        </g>
        <g id="Group_2996" transform="translate(166.386 401.043)">
            <path id="Path_2354" d="M198.121 1053.133s-7.823-9.982 3.862-12.726-2.819-16.22 8.062-17.942 9.063 12.477 9.063 12.477 7.513-5.727 12.686-.911-2.072 10.094-2.072 10.094 10.459 3.194 3.933 9.046z" class="cls-6" transform="translate(-194.111 -1022.319)"/>
            <path id="Path_2355" d="M210.95 1087.881s-4.976-7.486-12.305-6.6-6.554 6.6-6.554 6.6z" class="cls-15" transform="translate(-192.067 -1056.807)"/>
        </g>
        <path id="Path_2356" d="M699.657 908.886a28.356 28.356 0 0 1 0 7.456 2.274 2.274 0 0 1-2.617 1.869l-.092-.017a4.971 4.971 0 0 1-4.089-3.592l-1.553-3.865a4.052 4.052 0 0 1 1.6-4.412c2.464-2.012 6.528-.185 6.751 2.561z" class="cls-1" transform="translate(-317.975 -552.845)"/>
        <path id="Path_2357" d="M711.1 920.58l1.33 1.69a.72.72 0 0 1-.4 1.156l-1.715.4z" class="cls-1" transform="translate(-329.195 -561.693)"/>
        <path id="Path_2358" d="M690.513 919.238a1.106 1.106 0 0 0 .162-1.118c-.249-.609-.746-1.417-1.566-1.243s-1.007 1.479-.423 2.361a1.118 1.118 0 0 0 1.827 0z" class="cls-1" transform="translate(-316.327 -559.51)"/>
    </g>
</svg>
