<?xml version="1.0" encoding="UTF-8"?>
<svg width="336px" height="43px" viewBox="0 0 336 43" version="1.1" xmlns="http://www.w3.org/2000/svg" xmlns:xlink="http://www.w3.org/1999/xlink">
    <!-- Generator: Sketch 41.2 (35397) - http://www.bohemiancoding.com/sketch -->
    <title>Page 1</title>
    <desc>Created with Sketch.</desc>
    <defs>
        <polygon id="path-1" points="27.5570653 32.5348961 27.5570653 0.687072549 0.233849246 0.687072549 0.233849246 32.5348961"></polygon>
        <polygon id="path-3" points="4.00760201 0.288352941 0.781833166 0.288352941 0.781833166 3.31934706 4.00760201 3.31934706 4.00760201 0.288352941"></polygon>
        <polygon id="path-5" points="4.00760201 0.288352941 0.781833166 0.288352941 0.781833166 3.31934706 4.00760201 3.31934706 4.00760201 0.288352941"></polygon>
        <polygon id="path-7" points="0.493025126 3.37254902 3.74327638 3.37254902 3.74327638 0.279162745 0.493025126 0.279162745 0.493025126 3.37254902"></polygon>
        <polygon id="path-9" points="0.493025126 3.37254902 3.74327638 3.37254902 3.74327638 0.279162745 0.493025126 0.279162745 0.493025126 3.37254902"></polygon>
    </defs>
    <g id="Symbols" stroke="none" stroke-width="1" fill="none" fill-rule="evenodd">
        <g id="header" transform="translate(-853.000000, -42.000000)">
            <g id="Page-1" transform="translate(853.000000, 42.000000)">
                <path d="M0.335155779,30.1858314 C0.332623116,29.3578706 0.340221106,28.6024196 0.357105528,27.9186353 C0.374834171,27.234851 0.406070352,26.5763608 0.452502513,25.9406353 C0.498934673,25.3049098 0.569849246,24.6776157 0.66440201,24.0612824 C0.758954774,23.4457922 0.892341709,22.7805569 1.06371859,22.0672627 C2.35537688,22.1987922 3.6478794,22.3640471 4.94038191,22.5621843 C6.2320402,22.7603216 7.52538693,23.0225373 8.81704523,23.3454588 C8.58910553,24.4246745 8.43376884,25.5081059 8.34934673,26.5957529 C8.26576884,27.6834 8.22609045,28.9405176 8.22946734,30.3654196 L8.25310553,38.943498 L0.357105528,38.9645765 L0.335155779,30.1858314 Z M9.37423116,15.1712431 C8.39155779,15.1737725 7.52454271,15.1619686 6.77149749,15.1358314 C6.01845226,15.108851 5.29579899,15.0532039 4.60269347,14.9680471 C3.90705528,14.8828902 3.19959799,14.7513608 2.4761005,14.5700863 C1.75175879,14.3888118 0.927798995,14.1367137 0,13.8112627 C0.306452261,12.7708314 0.615437186,11.7447333 0.932020101,10.7338118 C1.24607035,9.72204706 1.58460302,8.72461569 1.94930653,7.74067451 C2.93366834,8.00794902 3.77788945,8.21704706 4.48196985,8.3696549 C5.18520603,8.52226275 5.86058291,8.64030196 6.50556784,8.72461569 C7.15224121,8.80977255 7.83268342,8.86120392 8.54605025,8.8789098 C9.25857286,8.89577255 10.1264322,8.90336078 11.1487839,8.89998824 L17.3386131,8.88228235 C18.552603,8.87975294 19.7471759,9.01128235 20.9248643,9.27602745 C22.1017085,9.54330196 23.161206,10.0491843 24.1092663,10.7987333 C25.0362211,11.5280471 25.791799,12.5372824 26.3726231,13.8247529 C26.9559799,15.1139098 27.2489246,16.7968118 27.2556784,18.8759882 L27.3097085,38.8903804 L19.415397,38.9139882 L19.3655879,20.9205961 C19.3613668,19.7275569 19.3073367,18.7545765 19.1984322,18.0041843 C19.0895276,17.2537922 18.8523015,16.6678118 18.4842211,16.2445569 C18.1169849,15.8229882 17.5868141,15.5354784 16.8911759,15.3837137 C16.1980704,15.2311059 15.2719598,15.1560667 14.1145327,15.1594392 L9.37423116,15.1712431 Z" id="Fill-1" fill="#FFFFFF"></path>
                <path d="M54.2935477,8.78051569 C55.5075377,8.77714314 56.7029548,8.90867255 57.8806432,9.17426078 C59.0583317,9.44069216 60.1178291,9.94741765 61.064201,10.6961235 C61.9928442,11.4245941 62.7467337,12.4388882 63.3292462,13.7364765 C63.9109146,15.0349078 64.2055477,16.7329863 64.2106131,18.8315549 L64.2663317,38.8164373 L56.4294271,38.8375157 L56.3796181,20.8154569 C56.375397,19.6224176 56.3196784,18.6502804 56.2124623,17.8998882 C56.104402,17.1494961 55.8663317,16.5626725 55.4999397,16.1402608 C55.1301709,15.7186922 54.6,15.4311824 53.9060503,15.2785745 C53.2112563,15.1268098 52.2859899,15.0517706 51.129407,15.0551431 L45.2882412,15.0720059 C44.9834774,16.4007902 44.8019698,17.6191235 44.7479397,18.7261627 C44.6939095,19.8340451 44.6668945,20.9748098 44.6694271,22.1493 L44.7175477,38.8425745 L36.8806432,38.8644961 L36.8342111,22.3449078 C36.8316784,21.1510255 36.9093467,19.937751 37.070593,18.7050843 C37.2301508,17.4724176 37.4817286,16.1916922 37.8270151,14.8620647 C37.150794,14.7684765 36.4661307,14.6310451 35.7721809,14.4489275 C35.0765427,14.2684961 34.2770653,14.0256725 33.3686834,13.7196137 C33.6734472,12.6791824 33.9841206,11.6530843 34.3007035,10.6413196 C34.6147538,9.6295549 34.9532864,8.63212353 35.3179899,7.64902549 C36.3023518,7.9163 37.1448844,8.12539804 37.8506533,8.27800588 C38.5538894,8.43061373 39.2292663,8.54865294 39.8742513,8.63296667 C40.5226131,8.71728039 41.2038995,8.76871176 41.9164221,8.78557451 C42.6297889,8.80328039 43.496804,8.81086863 44.5191558,8.80749608 L54.2935477,8.78051569 Z" id="Fill-3" fill="#FFFFFF"></path>
                <polygon id="Fill-5" fill="#FFFFFF" points="84.6855075 8.69527451 84.7699296 38.7311961 76.8747739 38.7522745 76.8089246 14.9842353 71.7478191 14.9985686 71.7300905 8.73152941"></polygon>
                <path d="M112.824326,8.61787451 C114.038316,8.61450196 115.232888,8.74603137 116.409733,9.01246275 C117.585733,9.27889412 118.646919,9.78561961 119.594135,10.5343255 C120.521934,11.2636392 121.276667,12.2720314 121.858336,13.5603451 C122.441692,14.849502 122.734637,16.5324039 122.740547,18.6115804 L122.795421,38.6251294 L114.90111,38.6487373 L114.850456,20.6561882 C114.847079,19.463149 114.792205,18.4901686 114.684145,17.7397765 C114.57524,16.9893843 114.33717,16.4025608 113.969089,15.9809922 C113.602697,15.5594235 113.072527,15.2719137 112.376044,15.120149 C111.683783,14.9675412 110.756828,14.892502 109.600245,14.8958745 L105.233934,14.9076784 C104.600768,16.238149 104.161773,17.6638941 103.91526,19.1857569 C103.668748,20.7076196 103.54718,22.1999725 103.551401,23.6628157 C103.553934,24.5093255 103.575039,25.3052471 103.616406,26.0455216 C103.656084,26.7866392 103.73122,27.5134235 103.83928,28.2241882 C103.946496,28.9374824 104.084949,29.6448745 104.249572,30.3472078 C104.415883,31.0495412 104.615964,31.7746392 104.848969,32.5258745 L105.403622,34.2281686 C105.328486,35.0367373 105.238999,35.8124235 105.134316,36.5535412 C105.031321,37.2963451 104.902999,38.0037373 104.750195,38.6782471 L90.5537729,38.7170314 L90.5360442,32.4499922 L97.1868181,32.4322863 C96.6802854,30.9517373 96.3003859,29.5268353 96.0454312,28.1601098 C95.7913206,26.7933843 95.662999,25.446051 95.6587779,24.1172667 C95.6562452,23.0599725 95.720406,21.9950902 95.8521045,20.9259922 C95.983803,19.8577373 96.2125869,18.7743059 96.5367678,17.6748549 C96.6912603,17.1748745 96.8482854,16.6833255 97.0103759,16.201051 C97.1724663,15.7196196 97.3598834,15.2483059 97.5717829,14.7845804 C96.7216523,14.7103843 95.8892503,14.5822275 95.0686673,14.4017961 C94.2480844,14.2205216 93.2983357,13.9397569 92.2177327,13.5578157 C92.5224965,12.5173843 92.8323256,11.4912863 93.1497528,10.4795216 C93.4629588,9.4686 93.8031799,8.47032549 94.166195,7.48807059 C95.151401,7.75450196 95.9947779,7.96444314 96.6988583,8.11620784 C97.4037829,8.26881569 98.0783156,8.3868549 98.7241447,8.47201176 C99.3699739,8.55716863 100.048728,8.6086 100.763783,8.62546275 C101.47715,8.64316863 102.344165,8.64991373 103.366517,8.64738431 L112.824326,8.61787451 Z" id="Fill-7" fill="#FFFFFF"></path>
                <path d="M136.326428,6.76196078 C138.121242,7.20039216 139.717664,7.58992157 141.115694,7.93223529 C142.515413,8.27539216 143.782589,8.60927451 144.922287,8.93303922 C146.059453,9.25764706 147.116418,9.57719608 148.091493,9.89252941 C149.065725,10.2078627 150.015473,10.5375294 150.943272,10.8815294 C151.92679,11.2643137 152.753282,11.7229804 153.419373,12.260902 C154.084619,12.7979804 154.617323,13.4126275 155.014951,14.104 C155.411735,14.7970588 155.69286,15.5752745 155.860016,16.4411765 C156.025483,17.3070784 156.11075,18.2404314 156.114127,19.2412353 L156.145363,30.8234118 C156.147051,31.3233922 156.134388,31.7862745 156.106529,32.2095294 C156.079514,32.6327843 156.027172,33.0956667 155.950348,33.5964902 C155.854951,34.1740392 155.722408,34.8434902 155.550187,35.604 C155.379654,36.3653529 155.15087,37.342549 154.864679,38.5364314 L128.868579,38.6089412 L128.85085,32.3410588 L148.602247,32.2862549 L148.569323,20.3583922 C148.56679,19.6847255 148.539775,19.1122353 148.491654,18.6409216 C148.441845,18.1687647 148.330408,17.764902 148.155654,17.4284902 C147.981745,17.0920784 147.724257,16.8037255 147.386569,16.5642745 C147.049725,16.3248235 146.590468,16.0997059 146.012177,15.8897647 C145.259132,15.6224902 144.429262,15.3459412 143.521725,15.0592745 C142.615875,14.773451 141.581705,14.4682353 140.425122,14.1436275 L137.723614,19.7825294 L141.517544,22.0244314 L138.035132,27.7518627 L128.822991,22.3195294 L136.326428,6.76196078 Z" id="Fill-9" fill="#FFFFFF"></path>
                <path d="M180.201612,29.6860196 C180.199079,28.858902 180.206677,28.1026078 180.222718,27.4196667 C180.24129,26.7358824 180.272527,26.076549 180.319803,25.4408235 C180.366235,24.805098 180.43715,24.1786471 180.531703,23.5631569 C180.626255,22.9459804 180.758798,22.2815882 180.930175,21.5682941 C182.221833,21.6998235 183.51518,21.8650784 184.807682,22.0632157 C186.097652,22.2613529 187.392687,22.5235686 188.684346,22.8464902 C188.455562,23.9257059 188.300225,25.0091373 188.216647,26.0967843 C188.133069,27.1861176 188.093391,28.441549 188.096768,29.866451 L188.119562,38.4445294 L180.224406,38.4656078 L180.201612,29.6860196 Z M189.239843,14.6722745 C188.258014,14.6748039 187.390155,14.663 186.63711,14.6360196 C185.88322,14.6090392 185.161411,14.5542353 184.468306,14.4682353 C183.772667,14.3839216 183.066054,14.251549 182.341713,14.0702745 C181.618215,13.889 180.793411,13.6360588 179.865612,13.311451 C180.172064,12.2710196 180.481049,11.2449216 180.797632,10.2331569 C181.111682,9.22139216 181.451059,8.22396078 181.814919,7.24170588 C182.79928,7.50813725 183.643502,7.71807843 184.347582,7.86984314 C185.050818,8.02245098 185.726195,8.1404902 186.372024,8.22480392 C187.017853,8.31080392 187.697451,8.36223529 188.410818,8.3782549 C189.123341,8.39596078 189.9912,8.40354902 191.013552,8.40101961 L197.203381,8.38331373 C198.416527,8.38078431 199.611944,8.51147059 200.789632,8.77790196 C201.966476,9.04433333 203.026818,9.55105882 203.97319,10.3006078 C204.901833,11.0290784 205.656567,12.0374706 206.238235,13.3257843 C206.820748,14.614098 207.113692,16.2978431 207.120446,18.3770196 L207.175321,38.3914118 L199.281009,38.4133333 L199.230356,20.4207843 C199.226979,19.2277451 199.172105,18.2547647 199.064044,17.5043725 C198.95514,16.7539804 198.717069,16.1671569 198.348989,15.7447451 C197.982597,15.3231765 197.452426,15.0356667 196.755944,14.883902 C196.062838,14.7312941 195.136728,14.6562549 193.979301,14.6604706 L189.239843,14.6722745 Z" id="Fill-11" fill="#FFFFFF"></path>
                <path d="M228.261262,8.2971451 L228.291654,19.2714196 C228.294187,20.3110078 228.286589,21.1777529 228.269705,21.8708118 C228.251976,22.5647137 228.215674,23.2004392 228.1608,23.7771451 C228.103393,24.3563804 228.029102,24.9136941 227.93286,25.453302 C227.837463,25.9912235 227.714207,26.5890078 227.561403,27.2449686 L219.779373,26.1396157 C219.873081,25.5620667 219.959192,25.0334196 220.035172,24.550302 C220.111152,24.0688706 220.178689,23.5579294 220.233564,23.0191647 C220.289282,22.4795569 220.331493,21.8733412 220.360197,21.1988314 C220.384679,20.5243216 220.398187,19.7157529 220.39481,18.7722824 L220.383835,14.5852627 L213.761765,14.6029686 L213.74488,8.33677255 L228.261262,8.2971451 Z" id="Fill-13" fill="#FFFFFF"></path>
                <path d="M300.470955,8.13450392 L300.483618,12.1486804 C300.483618,12.514602 300.503035,12.9193078 300.543558,13.3619549 C300.583236,13.804602 300.641487,14.3534843 300.721688,15.0077588 C300.800201,15.6611902 300.898975,16.4554255 301.017166,17.3887784 C301.136201,18.3221314 301.274653,19.4485627 301.433367,20.7663863 C301.589548,22.0850529 301.766834,23.6347392 301.964382,25.4154451 C302.162774,27.1953078 302.381427,29.2609941 302.618653,31.6082882 C302.63807,31.9362686 302.654111,32.2389549 302.665085,32.5171902 C302.674372,32.7971118 302.68197,33.0618569 302.68197,33.3122686 C302.682814,33.7363667 302.669307,34.1309549 302.641447,34.4960333 C302.614432,34.862798 302.575598,35.2329353 302.528322,35.6081314 C302.481889,35.9841706 302.423638,36.3745431 302.357789,36.779249 C302.29194,37.1831118 302.211739,37.645151 302.117186,38.1662098 L282.540543,38.2201706 L282.52197,31.9531314 L295.043457,31.9168765 C295.041769,31.4936216 294.997869,30.8199549 294.907538,29.8958765 C294.81805,28.971798 294.700704,27.9237784 294.552121,26.7492882 C294.403538,25.5756412 294.252422,24.3438176 294.093709,23.0538176 C293.934995,21.7646608 293.783035,20.5421118 293.633608,19.3870137 C293.485869,18.2327588 293.369367,17.2083471 293.279035,16.3129353 C293.190392,15.4175235 293.14396,14.7877 293.14396,14.4217784 L285.713126,14.4420137 L285.695397,8.17581765 L300.470955,8.13450392 Z" id="Fill-15" fill="#FFFFFF"></path>
                <g id="Group-19" transform="translate(308.140704, 5.613776)">
                    <mask id="mask-2" fill="white">
                        <use xlink:href="#path-1"></use>
                    </mask>
                    <g id="Clip-18"></g>
                    <path d="M7.73813065,0.687072549 C9.53294472,1.12550392 11.1285226,1.51503333 12.5282412,1.8581902 C13.9271156,2.20050392 15.1959799,2.53438627 16.3339899,2.85815098 C17.4711558,3.18275882 18.529809,3.50146471 19.503196,3.81764118 C20.4774271,4.13213137 21.4271759,4.46179804 22.3549749,4.80579804 C23.3393367,5.18773922 24.1649849,5.64809216 24.8302312,6.18517059 C25.4971658,6.72224902 26.0281809,7.33773922 26.4266533,8.02911176 C26.8217487,8.72132745 27.1062513,9.49954314 27.2717186,10.3654451 C27.4371859,11.2313471 27.5224523,12.1647 27.5241407,13.1655039 L27.5570653,24.7468373 C27.5587538,25.2468176 27.5452462,25.7097 27.5182312,26.1329549 C27.4895276,26.5570529 27.4380302,27.0190922 27.3620503,27.5207588 C27.2674975,28.0974647 27.1332663,28.7677588 26.9618894,29.5291118 C26.792201,30.2904647 26.5625729,31.2676608 26.2763819,32.4623863 L0.280281407,32.5348961 L0.262552764,26.2661706 L20.0131055,26.2122098 L19.9793367,14.2843471 C19.9776482,13.6115235 19.9523216,13.0381902 19.9025126,12.5660333 C19.854392,12.0938765 19.7421106,11.6908569 19.5673568,11.353602 C19.392603,11.0180333 19.1359598,10.7296804 18.7991156,10.4902294 C18.4614271,10.2507784 18.0021709,10.0248176 17.4238794,9.81571961 C16.6699899,9.5484451 15.8409648,9.27105294 14.9334271,8.98522941 C14.0275779,8.69940588 12.9950955,8.3941902 11.8368241,8.06958235 L9.13447236,13.7084843 L12.928402,15.9503863 L9.44598995,21.6786608 L0.233849246,16.2463275 L7.73813065,0.687072549 Z" id="Fill-17" fill="#FFFFFF" mask="url(#mask-2)"></path>
                </g>
                <path d="M256.224398,10.2271706 L256.224398,10.2263275 L256.224398,10.2271706 Z" id="Fill-20" fill="#FFFFFF"></path>
                <path d="M256.604466,5.6010451 L256.616285,9.80998627 C257.50525,9.8378098 258.372265,9.95922157 259.205512,10.1674765 L260.369692,6.12041765 C259.162456,5.80592745 257.90119,5.6305549 256.604466,5.6010451" id="Fill-22" fill="#FFFFFF"></path>
                <path d="M243.925447,22.1170922 C243.907719,15.4875039 249.179879,10.0560137 255.762271,9.81150392 L255.749608,5.60256275 C251.500643,5.7214451 247.524362,7.43132745 244.513869,10.4531314 C241.403759,13.5769549 239.697588,17.7235039 239.711095,22.1280529 C239.717849,24.5815824 240.268281,26.9086412 241.242513,29.002151 L245.020402,27.1379745 C244.323075,25.6043078 243.928824,23.9070725 243.925447,22.1170922" id="Fill-24" fill="#FFFFFF"></path>
                <path d="M261.190782,6.3572549 L260.026601,10.4051569 C262.007144,11.051 263.766501,12.1850196 265.166219,13.6664118 L268.329516,10.8882745 C266.404691,8.81247059 263.953073,7.22990196 261.190782,6.3572549" id="Fill-26" fill="#FFFFFF"></path>
                <path d="M267.36913,16.9022882 L271.248326,15.2598569 C270.630356,13.909151 269.837632,12.6537196 268.896326,11.5272882 L265.732185,14.3045824 C266.380547,15.094602 266.931823,15.967249 267.36913,16.9022882" id="Fill-28" fill="#FFFFFF"></path>
                <path d="M256.268888,38.5752157 C260.680788,38.5625686 264.823381,36.8358235 267.931803,33.7111569 C270.859562,30.7719804 272.542094,26.9272745 272.719381,22.8119216 L268.503341,22.7343529 C268.165652,29.1902549 262.809914,34.3468824 256.257914,34.3662745 C255.93711,34.3662745 255.622215,34.3502549 255.308165,34.3266471 L254.848064,38.5136667 C255.301411,38.5516078 255.758979,38.5752157 256.222456,38.5752157 L256.268888,38.5752157 Z" id="Fill-30" fill="#FFFFFF"></path>
                <path d="M267.703863,17.6881765 C268.208708,18.9941961 268.494898,20.406451 268.518537,21.881098 L272.734577,21.9578235 C272.718537,19.8727451 272.310778,17.8804118 271.583904,16.0457451 L267.703863,17.6881765 Z" id="Fill-32" fill="#FFFFFF"></path>
                <path d="M249.412884,37.0988824 L251.053206,33.2170784 C248.644643,32.0957059 246.657347,30.2239412 245.399457,27.9036275 L241.622412,29.7678039 C243.33196,32.9902745 246.077367,35.5820784 249.412884,37.0988824" id="Fill-34" fill="#FFFFFF"></path>
                <path d="M251.84002,33.5501176 L250.200543,37.4319216 C251.404402,37.9057647 252.677487,38.2413333 253.999538,38.4209216 L254.460482,34.2347451 C253.549568,34.1023725 252.673266,33.8688235 251.84002,33.5501176" id="Fill-36" fill="#FFFFFF"></path>
                <path d="M256.602018,4.67022157 C257.409938,4.68792745 258.206038,4.75706471 258.98441,4.88016275 L259.51036,2.04806471 C258.558923,1.89292745 257.585536,1.80608431 256.593576,1.78753529 L256.602018,4.67022157 Z" id="Fill-38" fill="#FFFFFF"></path>
                <path d="M236.942557,15.6544451 C236.302637,17.5649941 235.940466,19.5994843 235.902476,21.7123863 L238.677431,21.704798 C238.726396,19.9249353 239.04129,18.2099941 239.587502,16.5987588 L236.942557,15.6544451 Z" id="Fill-40" fill="#FFFFFF"></path>
                <path d="M240.285588,29.5377961 C240.039075,29.0066196 239.819578,28.4627961 239.627095,27.9063255 L237.026894,28.7477765 C237.264965,29.4332471 237.537648,30.1018549 237.845789,30.7502275 L240.285588,29.5377961 Z" id="Fill-42" fill="#FFFFFF"></path>
                <path d="M239.368004,27.0923608 C238.945893,25.6480667 238.70529,24.1278902 238.67321,22.5579686 L235.905009,22.5664 C235.948064,24.4288902 236.242697,26.2289882 236.760205,27.9363412 L239.368004,27.0923608 Z" id="Fill-44" fill="#FFFFFF"></path>
                <path d="M271.621556,30.6106882 C269.191043,35.0253549 264.909154,38.2916686 259.80837,39.3582373 L260.287043,41.9846098 C264.186501,41.199649 267.770219,39.2823549 270.640571,36.4005118 C271.997234,35.0371588 273.133556,33.5127667 274.038561,31.8737078 L271.621556,30.6106882 Z" id="Fill-46" fill="#FFFFFF"></path>
                <path d="M259.825508,5.03327647 C260.114231,5.09313922 260.399578,5.16143333 260.681548,5.23478627 L261.484402,2.47182549 C261.111256,2.37149216 260.733889,2.27874706 260.353146,2.20033529 L259.825508,5.03327647 Z" id="Fill-48" fill="#FFFFFF"></path>
                <path d="M241.458802,31.6646098 C241.174299,31.2244922 240.910058,30.769198 240.66439,30.3029431 L238.232189,31.5136882 C238.535264,32.0912373 238.867043,32.6510804 239.224149,33.1932176 L241.458802,31.6646098 Z" id="Fill-50" fill="#FFFFFF"></path>
                <path d="M276.554931,22.0269608 C276.549865,20.5953137 276.395373,19.1990784 276.108338,17.850902 L273.384036,18.4908431 C273.628016,19.6172745 273.761403,20.7833333 273.777443,21.9780588 L276.554931,22.0269608 Z" id="Fill-52" fill="#FFFFFF"></path>
                <path d="M262.304647,2.70807255 L261.500949,5.47187647 C263.016326,5.94993529 264.440527,6.6311902 265.748225,7.47938627 L267.372507,5.11860196 C265.817451,4.09587647 264.116346,3.2771902 262.304647,2.70807255" id="Fill-54" fill="#FFFFFF"></path>
                <path d="M275.912732,17.0195686 C275.700832,16.1983529 275.434058,15.4007451 275.123385,14.6233725 L272.529938,15.7110196 C272.784048,16.3442157 273.003546,16.9942745 273.182521,17.6611961 L275.912732,17.0195686 Z" id="Fill-56" fill="#FFFFFF"></path>
                <path d="M271.200289,13.057498 C271.569214,13.6569686 271.89846,14.2825765 272.193938,14.9258902 L274.793294,13.8365569 C274.437877,13.0440078 274.038561,12.2742235 273.588591,11.5381647 L271.200289,13.057498 Z" id="Fill-58" fill="#FFFFFF"></path>
                <path d="M249.750911,38.491998 L248.713363,40.9438412 C250.263353,41.5627039 251.906207,41.9943902 253.614066,42.2152922 L253.900257,39.5754294 C252.454107,39.3831941 251.065363,39.0155863 249.750911,38.491998" id="Fill-60" fill="#FFFFFF"></path>
                <path d="M239.880784,15.7976941 C240.211719,14.9596157 240.602593,14.1535765 241.053407,13.3846353 L238.634714,11.9184196 C238.091879,12.8517725 237.621648,13.8323412 237.231618,14.8516941 L239.880784,15.7976941 Z" id="Fill-62" fill="#FFFFFF"></path>
                <path d="M241.501688,12.6581882 C243.932201,8.92814902 247.744704,6.17530588 252.211477,5.12812941 L251.617146,2.31036471 C246.367779,3.53038431 241.896784,6.78320784 239.079618,11.1902863 L241.501688,12.6581882 Z" id="Fill-64" fill="#FFFFFF"></path>
                <path d="M273.766722,22.8305549 C273.678078,25.3397314 273.059264,27.7165353 272.014963,29.8538882 L274.435345,31.1185941 C275.703365,28.5765353 276.42433,25.7840647 276.534923,22.8811431 L273.766722,22.8305549 Z" id="Fill-66" fill="#FFFFFF"></path>
                <path d="M256.280454,42.3882196 C257.350927,42.3865333 258.407891,42.2980039 259.444595,42.132749 L258.968454,39.5131216 C258.072736,39.6547686 257.155912,39.7314941 256.223047,39.7340235 C255.726645,39.7340235 255.236153,39.7070431 254.749881,39.6665725 L254.46369,42.3064353 C255.04367,42.3570235 255.62956,42.3882196 256.223047,42.3882196 L256.280454,42.3882196 Z" id="Fill-68" fill="#FFFFFF"></path>
                <path d="M253.047847,4.95343137 C253.926681,4.79239216 254.827465,4.69711765 255.747666,4.67266667 L255.739224,1.78998039 C254.619787,1.81696078 253.521455,1.93247059 252.452671,2.13398039 L253.047847,4.95343137 Z" id="Fill-70" fill="#FFFFFF"></path>
                <path d="M248.964434,38.1569353 C248.255288,37.8331706 247.571469,37.4647196 246.914665,37.0524255 L245.449097,39.2858961 C246.240133,39.7833471 247.068314,40.225151 247.928575,40.6104647 L248.964434,38.1569353 Z" id="Fill-72" fill="#FFFFFF"></path>
                <path d="M246.202565,36.5817863 C245.355811,35.9907471 244.562243,35.3305706 243.831148,34.6037863 L241.89366,36.4679627 C242.766585,37.335551 243.718022,38.1196686 244.73362,38.8186294 L246.202565,36.5817863 Z" id="Fill-74" fill="#FFFFFF"></path>
                <path d="M270.736137,12.3420118 L273.125282,10.8218353 C272.708237,10.2004431 272.259112,9.60350196 271.777061,9.03269804 L269.639493,10.9053059 C270.028679,11.3648157 270.395916,11.8437176 270.736137,12.3420118" id="Fill-76" fill="#FFFFFF"></path>
                <path d="M243.241206,33.9865255 C242.775196,33.4764275 242.342955,32.9342902 241.938573,32.3710745 L239.707296,33.8971529 C240.198633,34.5809373 240.731337,35.2352118 241.303719,35.8523882 L243.241206,33.9865255 Z" id="Fill-78" fill="#FFFFFF"></path>
                <path d="M268.074814,5.60433333 L266.45391,7.96090196 C267.401126,8.64215686 268.278271,9.41447059 269.072683,10.2660392 L271.216161,8.38921569 C270.269789,7.35721569 269.216201,6.42554902 268.074814,5.60433333" id="Fill-80" fill="#FFFFFF"></path>
                <path d="M256.602018,4.67022157 C257.409938,4.68792745 258.206038,4.75706471 258.98441,4.88016275 L259.51036,2.04806471 C258.558923,1.89292745 257.585536,1.80608431 256.593576,1.78753529 L256.602018,4.67022157 Z" id="Fill-82" fill="#FFFFFF"></path>
                <path d="M236.942557,15.6544451 C236.302637,17.5649941 235.940466,19.5994843 235.902476,21.7123863 L238.677431,21.704798 C238.726396,19.9249353 239.04129,18.2099941 239.587502,16.5987588 L236.942557,15.6544451 Z" id="Fill-84" fill="#FFFFFF"></path>
                <path d="M240.285588,29.5377961 C240.039075,29.0066196 239.819578,28.4627961 239.627095,27.9063255 L237.026894,28.7477765 C237.264965,29.4332471 237.537648,30.1018549 237.845789,30.7502275 L240.285588,29.5377961 Z" id="Fill-86" fill="#FFFFFF"></path>
                <path d="M239.368004,27.0923608 C238.945893,25.6480667 238.70529,24.1278902 238.67321,22.5579686 L235.905009,22.5664 C235.948064,24.4288902 236.242697,26.2289882 236.760205,27.9363412 L239.368004,27.0923608 Z" id="Fill-88" fill="#FFFFFF"></path>
                <path d="M271.621556,30.6106882 C269.191043,35.0253549 264.909154,38.2916686 259.80837,39.3582373 L260.287043,41.9846098 C264.186501,41.199649 267.770219,39.2823549 270.640571,36.4005118 C271.997234,35.0371588 273.133556,33.5127667 274.038561,31.8737078 L271.621556,30.6106882 Z" id="Fill-90" fill="#FFFFFF"></path>
                <path d="M259.825508,5.03327647 C260.114231,5.09313922 260.399578,5.16143333 260.681548,5.23478627 L261.484402,2.47182549 C261.111256,2.37149216 260.733889,2.27874706 260.353146,2.20033529 L259.825508,5.03327647 Z" id="Fill-92" fill="#FFFFFF"></path>
                <path d="M241.458802,31.6646098 C241.174299,31.2244922 240.910058,30.769198 240.66439,30.3029431 L238.232189,31.5136882 C238.535264,32.0912373 238.867043,32.6510804 239.224149,33.1932176 L241.458802,31.6646098 Z" id="Fill-94" fill="#FFFFFF"></path>
                <path d="M276.554931,22.0269608 C276.549865,20.5953137 276.395373,19.1990784 276.108338,17.850902 L273.384036,18.4908431 C273.628016,19.6172745 273.761403,20.7833333 273.777443,21.9780588 L276.554931,22.0269608 Z" id="Fill-96" fill="#FFFFFF"></path>
                <path d="M262.304647,2.70807255 L261.500949,5.47187647 C263.016326,5.94993529 264.440527,6.6311902 265.748225,7.47938627 L267.372507,5.11860196 C265.817451,4.09587647 264.116346,3.2771902 262.304647,2.70807255" id="Fill-98" fill="#FFFFFF"></path>
                <path d="M275.912732,17.0195686 C275.700832,16.1983529 275.434058,15.4007451 275.123385,14.6233725 L272.529938,15.7110196 C272.784048,16.3442157 273.003546,16.9942745 273.182521,17.6611961 L275.912732,17.0195686 Z" id="Fill-100" fill="#FFFFFF"></path>
                <path d="M271.200289,13.057498 C271.569214,13.6569686 271.89846,14.2825765 272.193938,14.9258902 L274.793294,13.8365569 C274.437877,13.0440078 274.038561,12.2742235 273.588591,11.5381647 L271.200289,13.057498 Z" id="Fill-102" fill="#FFFFFF"></path>
                <path d="M249.750911,38.491998 L248.713363,40.9438412 C250.263353,41.5627039 251.906207,41.9943902 253.614066,42.2152922 L253.900257,39.5754294 C252.454107,39.3831941 251.065363,39.0155863 249.750911,38.491998" id="Fill-104" fill="#FFFFFF"></path>
                <path d="M239.880784,15.7976941 C240.211719,14.9596157 240.602593,14.1535765 241.053407,13.3846353 L238.634714,11.9184196 C238.091879,12.8517725 237.621648,13.8323412 237.231618,14.8516941 L239.880784,15.7976941 Z" id="Fill-106" fill="#FFFFFF"></path>
                <path d="M241.501688,12.6581882 C243.932201,8.92814902 247.744704,6.17530588 252.211477,5.12812941 L251.617146,2.31036471 C246.367779,3.53038431 241.896784,6.78320784 239.079618,11.1902863 L241.501688,12.6581882 Z" id="Fill-108" fill="#FFFFFF"></path>
                <path d="M273.766722,22.8305549 C273.678078,25.3397314 273.059264,27.7165353 272.014963,29.8538882 L274.435345,31.1185941 C275.703365,28.5765353 276.42433,25.7840647 276.534923,22.8811431 L273.766722,22.8305549 Z" id="Fill-110" fill="#FFFFFF"></path>
                <path d="M256.280454,42.3882196 C257.350927,42.3865333 258.407891,42.2980039 259.444595,42.132749 L258.968454,39.5131216 C258.072736,39.6547686 257.155912,39.7314941 256.223047,39.7340235 C255.726645,39.7340235 255.236153,39.7070431 254.749881,39.6665725 L254.46369,42.3064353 C255.04367,42.3570235 255.62956,42.3882196 256.223047,42.3882196 L256.280454,42.3882196 Z" id="Fill-112" fill="#FFFFFF"></path>
                <path d="M253.047847,4.95343137 C253.926681,4.79239216 254.827465,4.69711765 255.747666,4.67266667 L255.739224,1.78998039 C254.619787,1.81696078 253.521455,1.93247059 252.452671,2.13398039 L253.047847,4.95343137 Z" id="Fill-114" fill="#FFFFFF"></path>
                <path d="M248.964434,38.1569353 C248.255288,37.8331706 247.571469,37.4647196 246.914665,37.0524255 L245.449097,39.2858961 C246.240133,39.7833471 247.068314,40.225151 247.928575,40.6104647 L248.964434,38.1569353 Z" id="Fill-116" fill="#FFFFFF"></path>
                <path d="M246.202565,36.5817863 C245.355811,35.9907471 244.562243,35.3305706 243.831148,34.6037863 L241.89366,36.4679627 C242.766585,37.335551 243.718022,38.1196686 244.73362,38.8186294 L246.202565,36.5817863 Z" id="Fill-118" fill="#FFFFFF"></path>
                <path d="M270.736137,12.3420118 L273.125282,10.8218353 C272.708237,10.2004431 272.259112,9.60350196 271.777061,9.03269804 L269.639493,10.9053059 C270.028679,11.3648157 270.395916,11.8437176 270.736137,12.3420118" id="Fill-120" fill="#FFFFFF"></path>
                <path d="M243.241206,33.9865255 C242.775196,33.4764275 242.342955,32.9342902 241.938573,32.3710745 L239.707296,33.8971529 C240.198633,34.5809373 240.731337,35.2352118 241.303719,35.8523882 L243.241206,33.9865255 Z" id="Fill-122" fill="#FFFFFF"></path>
                <path d="M268.074814,5.60433333 L266.45391,7.96090196 C267.401126,8.64215686 268.278271,9.41447059 269.072683,10.2660392 L271.216161,8.38921569 C270.269789,7.35721569 269.216201,6.42554902 268.074814,5.60433333" id="Fill-124" fill="#FFFFFF"></path>
                <path d="M238.25836,10.4412431 L238.284531,10.4581059 C238.763204,9.72457647 239.2824,9.0281451 239.834521,8.36712549 L238.270179,7.00377255 C237.575385,7.8308902 236.934621,8.70943922 236.352109,9.6368902 L238.110621,10.6941843 L238.25836,10.4412431 Z" id="Fill-126" fill="#FFFFFF"></path>
                <g id="Group-130" transform="translate(243.135678, 0.554953)">
                    <mask id="mask-4" fill="white">
                        <use xlink:href="#path-3"></use>
                    </mask>
                    <g id="Clip-129"></g>
                    <path d="M4.00760201,2.18279804 L3.19208442,0.288268627 C2.35968241,0.67442549 1.55598392,1.10779804 0.781833166,1.58332745 L1.89620503,3.31934706 C2.57749146,2.90115098 3.28157186,2.52173922 4.00760201,2.18279804" id="Fill-128" fill="#FFFFFF" mask="url(#mask-4)"></path>
                </g>
                <path d="M242.361528,5.81098627 L241.052985,4.2115549 C240.267015,4.87763333 239.523256,5.5943 238.830151,6.36071176 L240.396181,7.72322157 C241.011618,7.0428098 241.668422,6.40202549 242.361528,5.81098627" id="Fill-131" fill="#FFFFFF"></path>
                <path d="M244.314633,4.33549608 L243.198573,2.5977902 C242.688663,2.93588824 242.195638,3.29506471 241.716121,3.67110392 L243.022131,5.26716275 C243.439176,4.94002549 243.873106,4.63143725 244.314633,4.33549608" id="Fill-133" fill="#FFFFFF"></path>
                <path d="M238.25836,10.4412431 L238.284531,10.4581059 C238.763204,9.72457647 239.2824,9.0281451 239.834521,8.36712549 L238.270179,7.00377255 C237.575385,7.8308902 236.934621,8.70943922 236.352109,9.6368902 L238.110621,10.6941843 L238.25836,10.4412431 Z" id="Fill-135" fill="#FFFFFF"></path>
                <g id="Group-139" transform="translate(243.135678, 0.554953)">
                    <mask id="mask-6" fill="white">
                        <use xlink:href="#path-5"></use>
                    </mask>
                    <g id="Clip-138"></g>
                    <path d="M4.00760201,2.18279804 L3.19208442,0.288268627 C2.35968241,0.67442549 1.55598392,1.10779804 0.781833166,1.58332745 L1.89620503,3.31934706 C2.57749146,2.90115098 3.28157186,2.52173922 4.00760201,2.18279804" id="Fill-137" fill="#FFFFFF" mask="url(#mask-6)"></path>
                </g>
                <path d="M242.361528,5.81098627 L241.052985,4.2115549 C240.267015,4.87763333 239.523256,5.5943 238.830151,6.36071176 L240.396181,7.72322157 C241.011618,7.0428098 241.668422,6.40202549 242.361528,5.81098627" id="Fill-140" fill="#FFFFFF"></path>
                <path d="M244.314633,4.33549608 L243.198573,2.5977902 C242.688663,2.93588824 242.195638,3.29506471 241.716121,3.67110392 L243.022131,5.26716275 C243.439176,4.94002549 243.873106,4.63143725 244.314633,4.33549608" id="Fill-142" fill="#FFFFFF"></path>
                <g id="Group-146" transform="translate(265.929648, 39.339267)">
                    <mask id="mask-8" fill="white">
                        <use xlink:href="#path-7"></use>
                    </mask>
                    <g id="Clip-145"></g>
                    <path d="M0.493025126,1.54218235 L1.41069347,3.37263333 C2.22030151,2.93841765 2.99698492,2.45951569 3.74327638,1.9393 L2.53435176,0.279162745 C1.87670352,0.738672549 1.19541709,1.16108431 0.493025126,1.54218235" id="Fill-144" fill="#FFFFFF" mask="url(#mask-8)"></path>
                </g>
                <path d="M274.871469,32.5521804 L274.841922,32.5361608 C274.099851,33.8775922 273.215952,35.1330235 272.208796,36.284749 L273.715731,37.6986902 C274.884977,36.370749 275.907329,34.9053765 276.758304,33.3194353 L274.949138,32.3911412 L274.871469,32.5521804 Z" id="Fill-147" fill="#FFFFFF"></path>
                <path d="M269.174581,39.1474529 L270.399546,40.8008451 C271.19649,40.1895706 271.95038,39.5310804 272.658681,38.8253745 L271.153435,37.4122765 C270.525335,38.0345118 269.865154,38.6129039 269.174581,39.1474529" id="Fill-149" fill="#FFFFFF"></path>
                <g id="Group-153" transform="translate(265.929648, 39.339267)">
                    <mask id="mask-10" fill="white">
                        <use xlink:href="#path-9"></use>
                    </mask>
                    <g id="Clip-152"></g>
                    <path d="M0.493025126,1.54218235 L1.41069347,3.37263333 C2.22030151,2.93841765 2.99698492,2.45951569 3.74327638,1.9393 L2.53435176,0.279162745 C1.87670352,0.738672549 1.19541709,1.16108431 0.493025126,1.54218235" id="Fill-151" fill="#FFFFFF" mask="url(#mask-10)"></path>
                </g>
                <path d="M274.871469,32.5521804 L274.841922,32.5361608 C274.099851,33.8775922 273.215952,35.1330235 272.208796,36.284749 L273.715731,37.6986902 C274.884977,36.370749 275.907329,34.9053765 276.758304,33.3194353 L274.949138,32.3911412 L274.871469,32.5521804 Z" id="Fill-154" fill="#FFFFFF"></path>
                <path d="M269.174581,39.1474529 L270.399546,40.8008451 C271.19649,40.1895706 271.95038,39.5310804 272.658681,38.8253745 L271.153435,37.4122765 C270.525335,38.0345118 269.865154,38.6129039 269.174581,39.1474529" id="Fill-156" fill="#FFFFFF"></path>
            </g>
        </g>
    </g>
</svg>