<?xml version="1.0" encoding="utf-8"?>
<!-- Generator: Adobe Illustrator 16.0.4, SVG Export Plug-In . SVG Version: 6.00 Build 0)  -->
<!DOCTYPE svg PUBLIC "-//W3C//DTD SVG 1.1//EN" "http://www.w3.org/Graphics/SVG/1.1/DTD/svg11.dtd">
<svg version="1.1" xmlns="http://www.w3.org/2000/svg" xmlns:xlink="http://www.w3.org/1999/xlink" x="0px" y="0px"
	 width="397.641px" height="49.658px" viewBox="0 0 397.641 49.658" enable-background="new 0 0 397.641 49.658"
	 xml:space="preserve">
<g id="Layer_1">
	<g>
		<path fill="#D0D8DB" d="M11.104,16.994c-1.164,0.003-2.191-0.011-3.083-0.042c-0.892-0.032-1.748-0.098-2.569-0.199
			c-0.824-0.101-1.662-0.257-2.519-0.472c-0.858-0.215-1.834-0.514-2.933-0.9c0.363-1.234,0.729-2.451,1.104-3.65
			c0.372-1.201,0.773-2.383,1.205-3.55c1.166,0.317,2.166,0.565,3,0.746c0.833,0.181,1.633,0.321,2.397,0.421
			C8.472,9.449,9.278,9.51,10.123,9.53c0.844,0.021,1.872,0.03,3.083,0.026l7.332-0.021c1.438-0.003,2.853,0.153,4.248,0.467
			c1.394,0.317,2.649,0.917,3.772,1.806c1.098,0.865,1.993,2.062,2.681,3.589c0.691,1.529,1.038,3.525,1.046,5.991l0.064,23.738
			l-9.351,0.027l-0.059-21.34c-0.005-1.415-0.069-2.569-0.198-3.459c-0.129-0.89-0.41-1.585-0.846-2.087
			c-0.435-0.5-1.063-0.841-1.887-1.021c-0.821-0.181-1.918-0.27-3.289-0.266L11.104,16.994z M0.397,34.802
			c-0.003-0.982,0.006-1.878,0.026-2.69c0.021-0.81,0.058-1.592,0.113-2.346c0.055-0.754,0.139-1.497,0.251-2.228
			s0.27-1.519,0.473-2.365c1.53,0.156,3.061,0.352,4.592,0.587c1.53,0.235,3.062,0.545,4.592,0.929
			c-0.27,1.28-0.454,2.565-0.554,3.855c-0.099,1.29-0.146,2.781-0.142,4.47l0.028,10.174l-9.353,0.026L0.397,34.802z"/>
		<path fill="#D0D8DB" d="M64.312,9.414c1.438-0.004,2.854,0.152,4.249,0.467c1.395,0.316,2.65,0.917,3.771,1.805
			c1.1,0.864,1.993,2.067,2.683,3.606c0.689,1.54,1.038,3.554,1.044,6.043l0.066,23.703l-9.283,0.025l-0.059-21.375
			c-0.005-1.415-0.071-2.568-0.198-3.458c-0.128-0.89-0.41-1.586-0.844-2.087c-0.438-0.5-1.066-0.841-1.888-1.022
			c-0.823-0.18-1.919-0.269-3.289-0.265l-6.919,0.02c-0.361,1.576-0.576,3.021-0.64,4.334c-0.064,1.314-0.096,2.667-0.093,4.06
			l0.057,19.799l-9.283,0.026l-0.055-19.593c-0.003-1.416,0.089-2.855,0.28-4.317c0.189-1.462,0.487-2.981,0.896-4.558
			c-0.801-0.111-1.612-0.274-2.434-0.49c-0.824-0.214-1.771-0.502-2.847-0.865c0.361-1.234,0.729-2.451,1.104-3.651
			c0.372-1.2,0.773-2.383,1.205-3.549c1.166,0.317,2.164,0.565,3,0.746c0.833,0.181,1.633,0.321,2.397,0.421
			C48,9.339,48.807,9.4,49.651,9.42c0.845,0.021,1.872,0.03,3.083,0.026L64.312,9.414z"/>
		<path fill="#D0D8DB" d="M100.312,9.313l0.1,35.623l-9.352,0.026l-0.078-28.19l-5.995,0.017l-0.021-7.433L100.312,9.313z"/>
		<path fill="#D0D8DB" d="M133.643,9.221c1.438-0.004,2.853,0.152,4.247,0.468c1.393,0.316,2.65,0.917,3.772,1.805
			c1.099,0.865,1.993,2.061,2.682,3.589c0.691,1.529,1.038,3.525,1.045,5.991l0.065,23.738l-9.351,0.027l-0.06-21.34
			c-0.004-1.415-0.069-2.569-0.197-3.459c-0.129-0.89-0.411-1.586-0.847-2.086c-0.434-0.5-1.062-0.841-1.887-1.021
			c-0.82-0.181-1.918-0.27-3.288-0.266l-5.172,0.014c-0.75,1.578-1.27,3.269-1.562,5.074c-0.292,1.805-0.436,3.575-0.431,5.31
			c0.003,1.005,0.028,1.947,0.077,2.826c0.047,0.879,0.136,1.741,0.264,2.585c0.127,0.845,0.291,1.684,0.486,2.517
			c0.197,0.833,0.434,1.694,0.71,2.584l0.657,2.02c-0.089,0.959-0.195,1.879-0.319,2.758c-0.122,0.88-0.274,1.719-0.455,2.519
			l-16.816,0.046l-0.021-7.433l7.878-0.021c-0.6-1.756-1.05-3.445-1.352-5.066c-0.301-1.621-0.453-3.219-0.458-4.795
			c-0.003-1.255,0.073-2.518,0.229-3.786c0.156-1.267,0.427-2.552,0.811-3.856c0.183-0.593,0.369-1.176,0.561-1.748
			c0.192-0.571,0.414-1.13,0.665-1.68c-1.007-0.088-1.993-0.24-2.965-0.454c-0.972-0.215-2.097-0.548-3.377-1.001
			c0.361-1.234,0.728-2.451,1.104-3.651c0.371-1.199,0.774-2.383,1.204-3.548c1.167,0.316,2.166,0.565,3,0.745
			c0.835,0.181,1.634,0.321,2.399,0.422c0.765,0.101,1.569,0.162,2.416,0.182c0.845,0.021,1.872,0.029,3.083,0.026L133.643,9.221z"
			/>
		<path fill="#D0D8DB" d="M161.482,7.02c2.126,0.52,4.017,0.982,5.673,1.388c1.658,0.407,3.159,0.803,4.509,1.187
			c1.347,0.385,2.599,0.764,3.754,1.138c1.154,0.374,2.279,0.765,3.378,1.173c1.165,0.454,2.144,0.998,2.933,1.636
			c0.788,0.637,1.419,1.366,1.89,2.186c0.47,0.822,0.803,1.745,1.001,2.772c0.196,1.027,0.297,2.134,0.301,3.321l0.037,13.736
			c0.002,0.594-0.013,1.143-0.046,1.645c-0.032,0.502-0.094,1.051-0.185,1.644c-0.113,0.686-0.27,1.48-0.474,2.381
			c-0.202,0.904-0.473,2.063-0.812,3.479l-30.793,0.086l-0.021-7.434l23.396-0.065l-0.039-14.147
			c-0.003-0.799-0.035-1.478-0.092-2.037c-0.059-0.56-0.191-1.039-0.398-1.438c-0.206-0.399-0.511-0.741-0.911-1.025
			c-0.399-0.284-0.943-0.551-1.628-0.8c-0.892-0.317-1.875-0.645-2.95-0.985c-1.073-0.339-2.298-0.701-3.668-1.086l-3.2,6.688
			l4.494,2.659l-4.125,6.793l-10.912-6.443L161.482,7.02z"/>
		<path fill="#D0D8DB" d="M224.159,16.402c-1.163,0.003-2.191-0.011-3.083-0.043s-1.748-0.097-2.569-0.199
			c-0.823-0.1-1.662-0.257-2.519-0.472c-0.857-0.215-1.834-0.515-2.933-0.9c0.363-1.234,0.729-2.451,1.104-3.651
			c0.372-1.2,0.774-2.383,1.205-3.548c1.166,0.316,2.166,0.565,3,0.745c0.833,0.181,1.633,0.321,2.398,0.421
			c0.765,0.102,1.57,0.163,2.415,0.182c0.845,0.021,1.872,0.03,3.083,0.027l7.332-0.021c1.438-0.003,2.853,0.152,4.248,0.468
			c1.394,0.316,2.65,0.917,3.772,1.806c1.099,0.864,1.993,2.06,2.682,3.588c0.69,1.528,1.037,3.525,1.045,5.991l0.065,23.738
			l-9.351,0.026l-0.06-21.34c-0.004-1.415-0.069-2.569-0.197-3.459c-0.129-0.89-0.411-1.586-0.847-2.087
			c-0.434-0.5-1.062-0.841-1.887-1.021c-0.821-0.181-1.918-0.27-3.288-0.265L224.159,16.402z M213.453,34.209
			c-0.003-0.982,0.006-1.878,0.026-2.689c0.021-0.81,0.058-1.592,0.114-2.346c0.055-0.754,0.139-1.497,0.251-2.227
			c0.112-0.732,0.269-1.52,0.473-2.366c1.529,0.156,3.061,0.352,4.592,0.587c1.529,0.236,3.062,0.546,4.592,0.929
			c-0.271,1.28-0.455,2.565-0.554,3.855c-0.1,1.292-0.146,2.782-0.142,4.471l0.027,10.173l-9.352,0.026L213.453,34.209z"/>
		<path fill="#D0D8DB" d="M270.381,8.841l0.036,13.016c0.003,1.233-0.006,2.261-0.026,3.083c-0.021,0.822-0.064,1.576-0.13,2.261
			c-0.067,0.686-0.156,1.348-0.269,1.987s-0.26,1.348-0.44,2.125l-9.218-1.31c0.112-0.686,0.213-1.313,0.303-1.885
			c0.089-0.571,0.169-1.177,0.235-1.816c0.066-0.64,0.116-1.359,0.149-2.159c0.03-0.8,0.045-1.759,0.041-2.878l-0.012-4.966
			l-7.844,0.021l-0.021-7.432L270.381,8.841z"/>
		<path fill="#D0D8DB" d="M355.915,8.648l0.014,4.761c0.001,0.434,0.024,0.914,0.072,1.439c0.047,0.525,0.116,1.176,0.211,1.952
			c0.093,0.775,0.21,1.717,0.35,2.824c0.141,1.107,0.305,2.443,0.492,4.006c0.186,1.564,0.396,3.402,0.63,5.514
			c0.235,2.111,0.494,4.561,0.775,7.345c0.023,0.389,0.042,0.749,0.054,1.079c0.013,0.332,0.021,0.645,0.021,0.942
			c0.001,0.503-0.015,0.971-0.048,1.404c-0.032,0.435-0.078,0.874-0.134,1.32c-0.055,0.445-0.123,0.907-0.201,1.388
			c-0.079,0.479-0.174,1.028-0.286,1.645l-23.189,0.064l-0.021-7.434l14.831-0.042c-0.002-0.502-0.055-1.301-0.161-2.397
			c-0.106-1.095-0.245-2.339-0.421-3.732c-0.176-1.392-0.355-2.853-0.543-4.383c-0.188-1.529-0.368-2.979-0.544-4.349
			c-0.176-1.369-0.314-2.584-0.421-3.646c-0.105-1.062-0.159-1.809-0.16-2.243l-8.802,0.024l-0.021-7.432L355.915,8.648z"/>
		<path fill="#D0D8DB" d="M374.166,6.473c2.126,0.52,4.016,0.982,5.674,1.389c1.657,0.406,3.16,0.802,4.507,1.186
			c1.349,0.385,2.602,0.763,3.755,1.138c1.154,0.373,2.279,0.764,3.378,1.172c1.166,0.453,2.144,0.999,2.932,1.636
			c0.79,0.637,1.419,1.367,1.891,2.187c0.469,0.821,0.805,1.744,1.001,2.771s0.297,2.134,0.3,3.321l0.038,13.736
			c0.002,0.594-0.014,1.143-0.046,1.645c-0.034,0.502-0.095,1.05-0.185,1.645c-0.112,0.685-0.271,1.479-0.473,2.382
			c-0.202,0.903-0.474,2.062-0.813,3.479l-30.793,0.086l-0.021-7.434l23.395-0.065L388.666,22.6
			c-0.002-0.798-0.032-1.478-0.091-2.038c-0.058-0.56-0.19-1.038-0.397-1.438c-0.207-0.398-0.511-0.74-0.911-1.024
			c-0.399-0.284-0.943-0.552-1.628-0.8c-0.893-0.317-1.875-0.646-2.949-0.985s-2.297-0.701-3.669-1.086l-3.201,6.688l4.495,2.659
			l-4.126,6.794l-10.911-6.443L374.166,6.473z"/>
		<g>
			<g>
				<polygon fill="#D0D8DC" points="303.504,11.13 303.504,11.129 303.504,11.13 				"/>
				<path fill="#D0D8DC" d="M303.954,5.643l0.014,4.992c1.054,0.033,2.08,0.177,3.067,0.424l1.379-4.8
					C306.984,5.886,305.49,5.678,303.954,5.643z"/>
				<path fill="#D0D8DC" d="M288.935,25.232c-0.021-7.863,6.224-14.305,14.021-14.595l-0.014-4.992
					c-5.034,0.141-9.744,2.169-13.309,5.753c-3.685,3.705-5.705,8.623-5.69,13.847c0.008,2.91,0.661,5.67,1.815,8.153l4.475-2.212
					C289.406,29.368,288.939,27.354,288.935,25.232z"/>
				<path fill="#D0D8DC" d="M309.387,6.54l-1.379,4.801c2.345,0.766,4.43,2.111,6.087,3.868l3.748-3.295
					C315.562,9.452,312.659,7.575,309.387,6.54z"/>
				<path fill="#D0D8DC" d="M316.705,19.047l4.595-1.948c-0.731-1.602-1.671-3.091-2.787-4.427l-3.748,3.294
					C315.534,16.903,316.187,17.938,316.705,19.047z"/>
				<path fill="#D0D8DC" d="M303.557,44.752c5.225-0.015,10.132-2.063,13.815-5.768c3.468-3.487,5.461-8.048,5.671-12.929
					l-4.994-0.091c-0.401,7.657-6.745,13.774-14.505,13.796c-0.38,0-0.753-0.019-1.125-0.047l-0.545,4.966
					c0.537,0.045,1.079,0.073,1.628,0.073H303.557z"/>
				<path fill="#D0D8DC" d="M317.102,19.979c0.597,1.549,0.936,3.224,0.965,4.973l4.994,0.091c-0.019-2.473-0.503-4.836-1.363-7.012
					L317.102,19.979z"/>
				<path fill="#D0D8DC" d="M295.436,43.001l1.943-4.604c-2.854-1.33-5.207-3.55-6.697-6.302l-4.474,2.211
					C288.232,38.128,291.485,41.202,295.436,43.001z"/>
				<path fill="#D0D8DC" d="M298.311,38.792l-1.943,4.604c1.427,0.562,2.935,0.961,4.5,1.173l0.546-4.965
					C300.336,39.447,299.298,39.17,298.311,38.792z"/>
			</g>
			<g>
				<g>
					<path fill="#D0D8DC" d="M303.951,4.539c0.957,0.021,1.9,0.103,2.822,0.249l0.624-3.359c-1.128-0.184-2.281-0.287-3.455-0.309
						L303.951,4.539z"/>
					<path fill="#D0D8DC" d="M280.664,17.567c-0.758,2.266-1.188,4.679-1.232,7.185l3.287-0.009
						c0.058-2.111,0.432-4.145,1.078-6.056L280.664,17.567z"/>
					<path fill="#D0D8DC" d="M284.624,34.033c-0.292-0.629-0.552-1.275-0.78-1.935l-3.081,0.999
						c0.283,0.812,0.606,1.605,0.972,2.375L284.624,34.033z"/>
					<path fill="#D0D8DC" d="M283.537,31.133c-0.5-1.713-0.785-3.516-0.823-5.378l-3.279,0.009c0.052,2.209,0.4,4.345,1.013,6.37
						L283.537,31.133z"/>
					<path fill="#D0D8DC" d="M321.742,35.306c-2.879,5.236-7.951,9.11-13.993,10.375l0.567,3.115
						c4.62-0.932,8.864-3.205,12.264-6.623c1.608-1.617,2.953-3.425,4.026-5.369L321.742,35.306z"/>
					<path fill="#D0D8DC" d="M307.77,4.97c0.341,0.071,0.679,0.152,1.013,0.239l0.952-3.277c-0.442-0.119-0.889-0.229-1.341-0.322
						L307.77,4.97z"/>
					<path fill="#D0D8DC" d="M286.014,36.555c-0.337-0.522-0.651-1.061-0.942-1.614l-2.881,1.436
						c0.36,0.685,0.753,1.349,1.175,1.992L286.014,36.555z"/>
					<path fill="#D0D8DC" d="M327.586,25.125c-0.006-1.698-0.189-3.354-0.53-4.953l-3.226,0.759
						c0.289,1.336,0.448,2.719,0.466,4.136L327.586,25.125C327.586,25.125,327.586,25.125,327.586,25.125z"/>
					<path fill="#D0D8DC" d="M310.706,2.212l-0.952,3.278c1.795,0.567,3.482,1.375,5.031,2.381l1.924-2.8
						C314.867,3.858,312.852,2.887,310.706,2.212z"/>
					<path fill="#D0D8DC" d="M326.825,19.186c-0.251-0.974-0.567-1.92-0.934-2.842l-3.073,1.29c0.301,0.751,0.561,1.522,0.773,2.313
						L326.825,19.186z"/>
					<path fill="#D0D8DC" d="M321.243,14.487c0.437,0.711,0.827,1.453,1.177,2.216l3.079-1.292c-0.421-0.94-0.894-1.853-1.427-2.726
						L321.243,14.487z"/>
					<path fill="#D0D8DC" d="M295.836,44.653l-1.228,2.909c1.835,0.733,3.78,1.246,5.804,1.507l0.339-3.131
						C299.038,45.71,297.393,45.274,295.836,44.653z"/>
					<path fill="#D0D8DC" d="M284.145,17.737c0.391-0.994,0.855-1.95,1.388-2.862l-2.864-1.739c-0.643,1.107-1.2,2.27-1.662,3.479
						L284.145,17.737z"/>
					<path fill="#D0D8DC" d="M286.064,14.013c2.879-4.424,7.395-7.689,12.686-8.931l-0.703-3.342
						c-6.219,1.447-11.515,5.305-14.852,10.532L286.064,14.013z"/>
					<path fill="#D0D8DC" d="M324.283,26.078c-0.105,2.976-0.838,5.795-2.075,8.33l2.867,1.5c1.502-3.014,2.356-6.327,2.488-9.77
						L324.283,26.078z"/>
					<path fill="#D0D8DC" d="M303.57,49.275c1.268-0.003,2.52-0.108,3.749-0.303l-0.565-3.108c-1.06,0.168-2.146,0.259-3.252,0.262
						c-0.588,0-1.169-0.031-1.745-0.079l-0.339,3.131c0.688,0.06,1.381,0.096,2.084,0.096H303.57z"/>
					<path fill="#D0D8DC" d="M299.741,4.875c1.041-0.191,2.108-0.304,3.198-0.333l-0.01-3.419c-1.326,0.032-2.627,0.169-3.893,0.408
						L299.741,4.875z"/>
					<path fill="#D0D8DC" d="M294.905,44.256c-0.84-0.384-1.651-0.821-2.429-1.31l-1.736,2.649c0.938,0.589,1.918,1.114,2.937,1.571
						L294.905,44.256z"/>
					<path fill="#D0D8DC" d="M291.633,42.387c-1.003-0.701-1.944-1.483-2.809-2.345l-2.294,2.211
						c1.033,1.028,2.16,1.959,3.363,2.788L291.633,42.387z"/>
					<path fill="#D0D8DC" d="M320.693,13.638l2.831-1.803c-0.494-0.737-1.027-1.445-1.597-2.122l-2.533,2.221
						C319.855,12.479,320.29,13.047,320.693,13.638z"/>
					<path fill="#D0D8DC" d="M288.125,39.31c-0.552-0.606-1.064-1.249-1.543-1.917l-2.643,1.81c0.583,0.812,1.213,1.588,1.891,2.32
						L288.125,39.31z"/>
					<path fill="#D0D8DC" d="M317.541,5.647l-1.92,2.795c1.122,0.808,2.161,1.724,3.102,2.734l2.539-2.226
						C320.141,7.726,318.892,6.621,317.541,5.647z"/>
				</g>
				<g>
					<path fill="#D0D8DB" d="M303.951,4.539c0.957,0.021,1.9,0.103,2.822,0.249l0.624-3.359c-1.128-0.184-2.281-0.287-3.455-0.309
						L303.951,4.539z"/>
					<path fill="#D0D8DB" d="M280.664,17.567c-0.758,2.266-1.188,4.679-1.232,7.185l3.287-0.009
						c0.058-2.111,0.432-4.145,1.078-6.056L280.664,17.567z"/>
					<path fill="#D0D8DB" d="M284.624,34.033c-0.292-0.629-0.552-1.275-0.78-1.935l-3.081,0.999
						c0.283,0.812,0.606,1.605,0.972,2.375L284.624,34.033z"/>
					<path fill="#D0D8DB" d="M283.537,31.133c-0.5-1.713-0.785-3.516-0.823-5.378l-3.279,0.009c0.052,2.209,0.4,4.345,1.013,6.37
						L283.537,31.133z"/>
					<path fill="#D0D8DB" d="M321.742,35.306c-2.879,5.236-7.951,9.11-13.993,10.375l0.567,3.115
						c4.62-0.932,8.864-3.205,12.264-6.623c1.608-1.617,2.953-3.425,4.026-5.369L321.742,35.306z"/>
					<path fill="#D0D8DB" d="M307.77,4.97c0.341,0.071,0.679,0.152,1.013,0.239l0.952-3.277c-0.442-0.119-0.889-0.229-1.341-0.322
						L307.77,4.97z"/>
					<path fill="#D0D8DB" d="M286.014,36.555c-0.337-0.522-0.651-1.061-0.942-1.614l-2.881,1.436
						c0.36,0.685,0.753,1.349,1.175,1.992L286.014,36.555z"/>
					<path fill="#D0D8DB" d="M327.586,25.125c-0.006-1.698-0.189-3.354-0.53-4.953l-3.226,0.759
						c0.289,1.336,0.448,2.719,0.466,4.136L327.586,25.125C327.586,25.125,327.586,25.125,327.586,25.125z"/>
					<path fill="#D0D8DB" d="M310.706,2.212l-0.952,3.278c1.795,0.567,3.482,1.375,5.031,2.381l1.924-2.8
						C314.867,3.858,312.852,2.887,310.706,2.212z"/>
					<path fill="#D0D8DB" d="M326.825,19.186c-0.251-0.974-0.567-1.92-0.934-2.842l-3.073,1.29c0.301,0.751,0.561,1.522,0.773,2.313
						L326.825,19.186z"/>
					<path fill="#D0D8DB" d="M321.243,14.487c0.437,0.711,0.827,1.453,1.177,2.216l3.079-1.292c-0.421-0.94-0.894-1.853-1.427-2.726
						L321.243,14.487z"/>
					<path fill="#D0D8DB" d="M295.836,44.653l-1.228,2.909c1.835,0.733,3.78,1.246,5.804,1.507l0.339-3.131
						C299.038,45.71,297.393,45.274,295.836,44.653z"/>
					<path fill="#D0D8DB" d="M284.145,17.737c0.391-0.994,0.855-1.95,1.388-2.862l-2.864-1.739c-0.643,1.107-1.2,2.27-1.662,3.479
						L284.145,17.737z"/>
					<path fill="#D0D8DB" d="M286.064,14.013c2.879-4.424,7.395-7.689,12.686-8.931l-0.703-3.342
						c-6.219,1.447-11.515,5.305-14.852,10.532L286.064,14.013z"/>
					<path fill="#D0D8DB" d="M324.283,26.078c-0.105,2.976-0.838,5.795-2.075,8.33l2.867,1.5c1.502-3.014,2.356-6.327,2.488-9.77
						L324.283,26.078z"/>
					<path fill="#D0D8DB" d="M303.57,49.275c1.268-0.003,2.52-0.108,3.749-0.303l-0.565-3.108c-1.06,0.168-2.146,0.259-3.252,0.262
						c-0.588,0-1.169-0.031-1.745-0.079l-0.339,3.131c0.688,0.06,1.381,0.096,2.084,0.096H303.57z"/>
					<path fill="#D0D8DB" d="M299.741,4.875c1.041-0.191,2.108-0.304,3.198-0.333l-0.01-3.419c-1.326,0.032-2.627,0.169-3.893,0.408
						L299.741,4.875z"/>
					<path fill="#D0D8DB" d="M294.905,44.256c-0.84-0.384-1.651-0.821-2.429-1.31l-1.736,2.649c0.938,0.589,1.918,1.114,2.937,1.571
						L294.905,44.256z"/>
					<path fill="#D0D8DB" d="M291.633,42.387c-1.003-0.701-1.944-1.483-2.809-2.345l-2.294,2.211
						c1.033,1.028,2.16,1.959,3.363,2.788L291.633,42.387z"/>
					<path fill="#D0D8DB" d="M320.693,13.638l2.831-1.803c-0.494-0.737-1.027-1.445-1.597-2.122l-2.533,2.221
						C319.855,12.479,320.29,13.047,320.693,13.638z"/>
					<path fill="#D0D8DB" d="M288.125,39.31c-0.552-0.606-1.064-1.249-1.543-1.917l-2.643,1.81c0.583,0.812,1.213,1.588,1.891,2.32
						L288.125,39.31z"/>
					<path fill="#D0D8DB" d="M317.541,5.647l-1.92,2.795c1.122,0.808,2.161,1.724,3.102,2.734l2.539-2.226
						C320.141,7.726,318.892,6.621,317.541,5.647z"/>
				</g>
			</g>
			<g>
				<g>
					<path fill="#D0D8DC" d="M282.222,11.384l0.032,0.02c0.566-0.87,1.181-1.696,1.836-2.48l-1.853-1.617
						c-0.823,0.981-1.583,2.023-2.272,3.123l2.083,1.254L282.222,11.384z"/>
					<path fill="#D0D8DC" d="M292.747,2.247L291.781,0c-0.986,0.458-1.938,0.972-2.855,1.536l1.32,2.059
						C291.053,3.099,291.887,2.649,292.747,2.247z"/>
					<path fill="#D0D8DC" d="M287.083,5.892l-1.55-1.897c-0.931,0.79-1.812,1.64-2.632,2.549l1.854,1.616
						C285.485,7.353,286.262,6.593,287.083,5.892z"/>
					<path fill="#D0D8DC" d="M289.396,4.142l-1.322-2.061c-0.603,0.401-1.188,0.827-1.756,1.273l1.547,1.893
						C288.359,4.859,288.873,4.493,289.396,4.142z"/>
				</g>
				<g>
					<path fill="#D0D8DB" d="M282.222,11.384l0.032,0.02c0.566-0.87,1.181-1.696,1.836-2.48l-1.853-1.617
						c-0.823,0.981-1.583,2.023-2.272,3.123l2.083,1.254L282.222,11.384z"/>
					<path fill="#D0D8DB" d="M292.747,2.247L291.781,0c-0.986,0.458-1.938,0.972-2.855,1.536l1.32,2.059
						C291.053,3.099,291.887,2.649,292.747,2.247z"/>
					<path fill="#D0D8DB" d="M287.083,5.892l-1.55-1.897c-0.931,0.79-1.812,1.64-2.632,2.549l1.854,1.616
						C285.485,7.353,286.262,6.593,287.083,5.892z"/>
					<path fill="#D0D8DB" d="M289.396,4.142l-1.322-2.061c-0.603,0.401-1.188,0.827-1.756,1.273l1.547,1.893
						C288.359,4.859,288.873,4.493,289.396,4.142z"/>
				</g>
			</g>
			<g>
				<g>
					<path fill="#D0D8DC" d="M315.584,47.487l1.087,2.171c0.959-0.515,1.879-1.083,2.763-1.7l-1.432-1.969
						C317.223,46.534,316.416,47.035,315.584,47.487z"/>
					<path fill="#D0D8DC" d="M325.592,37.608l-0.035-0.018c-0.879,1.591-1.926,3.079-3.12,4.445l1.786,1.678
						c1.384-1.576,2.595-3.313,3.604-5.194l-2.143-1.102L325.592,37.608z"/>
					<path fill="#D0D8DC" d="M318.844,45.43l1.451,1.961c0.943-0.724,1.837-1.505,2.676-2.342l-1.783-1.676
						C320.443,44.11,319.662,44.797,318.844,45.43z"/>
				</g>
				<g>
					<path fill="#D0D8DB" d="M315.584,47.487l1.087,2.171c0.959-0.515,1.879-1.083,2.763-1.7l-1.432-1.969
						C317.223,46.534,316.416,47.035,315.584,47.487z"/>
					<path fill="#D0D8DB" d="M325.592,37.608l-0.035-0.018c-0.879,1.591-1.926,3.079-3.12,4.445l1.786,1.678
						c1.384-1.576,2.595-3.313,3.604-5.194l-2.143-1.102L325.592,37.608z"/>
					<path fill="#D0D8DB" d="M318.844,45.43l1.451,1.961c0.943-0.724,1.837-1.505,2.676-2.342l-1.783-1.676
						C320.443,44.11,319.662,44.797,318.844,45.43z"/>
				</g>
			</g>
		</g>
	</g>
</g>
<g id="Isolation_Mode">
</g>
</svg>
